<?xml version="1.0" encoding="UTF-8"?>
<svg xmlns="http://www.w3.org/2000/svg" xmlns:xlink="http://www.w3.org/1999/xlink" width="32px" height="32px" viewBox="0 0 32 32" version="1.1">
<g id="surface1">
<path style=" stroke:none;fill-rule:nonzero;fill:rgb(21.568628%,25.098041%,67.450982%);fill-opacity:1;" d="M 4.484375 9.578125 C 4.695312 9.578125 4.90625 9.578125 5.121094 9.578125 C 5.355469 9.578125 5.59375 9.578125 5.828125 9.578125 C 6.074219 9.578125 6.316406 9.578125 6.5625 9.578125 C 7.234375 9.578125 7.902344 9.578125 8.570312 9.578125 C 9.269531 9.578125 9.96875 9.578125 10.667969 9.578125 C 11.839844 9.578125 13.015625 9.578125 14.1875 9.578125 C 15.546875 9.578125 16.90625 9.578125 18.261719 9.578125 C 19.425781 9.578125 20.59375 9.578125 21.757812 9.578125 C 22.453125 9.578125 23.148438 9.578125 23.84375 9.578125 C 24.5 9.578125 25.15625 9.578125 25.808594 9.578125 C 26.050781 9.578125 26.289062 9.578125 26.53125 9.578125 C 26.859375 9.578125 27.1875 9.578125 27.515625 9.578125 C 27.699219 9.578125 27.882812 9.578125 28.070312 9.578125 C 28.480469 9.601562 28.480469 9.601562 28.640625 9.761719 C 28.65625 10.148438 28.660156 10.53125 28.660156 10.921875 C 28.660156 11.101562 28.660156 11.101562 28.660156 11.289062 C 28.664062 11.691406 28.660156 12.097656 28.660156 12.5 C 28.660156 12.777344 28.660156 13.058594 28.660156 13.335938 C 28.660156 13.921875 28.660156 14.507812 28.660156 15.09375 C 28.660156 15.847656 28.660156 16.601562 28.660156 17.355469 C 28.660156 17.929688 28.660156 18.507812 28.660156 19.082031 C 28.660156 19.363281 28.660156 19.640625 28.660156 19.917969 C 28.664062 20.304688 28.660156 20.691406 28.660156 21.078125 C 28.660156 21.195312 28.660156 21.308594 28.660156 21.429688 C 28.660156 22.222656 28.660156 22.222656 28.480469 22.398438 C 28.160156 22.414062 27.835938 22.421875 27.515625 22.421875 C 27.304688 22.421875 27.09375 22.421875 26.878906 22.421875 C 26.644531 22.421875 26.40625 22.421875 26.171875 22.421875 C 25.925781 22.421875 25.683594 22.421875 25.4375 22.421875 C 24.765625 22.421875 24.097656 22.421875 23.429688 22.421875 C 22.730469 22.421875 22.03125 22.421875 21.332031 22.421875 C 20.160156 22.421875 18.984375 22.421875 17.8125 22.421875 C 16.453125 22.421875 15.09375 22.421875 13.738281 22.421875 C 12.574219 22.421875 11.40625 22.421875 10.242188 22.421875 C 9.546875 22.421875 8.851562 22.421875 8.15625 22.421875 C 7.5 22.421875 6.84375 22.421875 6.191406 22.421875 C 5.949219 22.421875 5.710938 22.421875 5.46875 22.421875 C 5.140625 22.421875 4.8125 22.421875 4.484375 22.421875 C 4.300781 22.421875 4.117188 22.421875 3.929688 22.421875 C 3.519531 22.398438 3.519531 22.398438 3.359375 22.238281 C 3.34375 21.851562 3.339844 21.46875 3.339844 21.078125 C 3.339844 20.957031 3.339844 20.835938 3.339844 20.710938 C 3.335938 20.308594 3.339844 19.902344 3.339844 19.5 C 3.339844 19.222656 3.339844 18.941406 3.339844 18.664062 C 3.339844 18.078125 3.339844 17.492188 3.339844 16.90625 C 3.339844 16.152344 3.339844 15.398438 3.339844 14.644531 C 3.339844 14.070312 3.339844 13.492188 3.339844 12.917969 C 3.339844 12.636719 3.339844 12.359375 3.339844 12.082031 C 3.335938 11.695312 3.339844 11.308594 3.339844 10.921875 C 3.339844 10.804688 3.339844 10.691406 3.339844 10.570312 C 3.34375 9.535156 3.476562 9.578125 4.484375 9.578125 Z M 4.484375 9.578125 "/>
<path style=" stroke:none;fill-rule:nonzero;fill:rgb(17.647059%,20.784314%,58.039218%);fill-opacity:1;" d="M 3.519531 9.601562 C 6.773438 9.597656 10.023438 9.59375 13.273438 9.589844 C 14.785156 9.589844 16.292969 9.589844 17.804688 9.589844 C 19.121094 9.585938 20.433594 9.585938 21.75 9.585938 C 22.445312 9.585938 23.144531 9.585938 23.839844 9.582031 C 24.496094 9.582031 25.152344 9.582031 25.804688 9.582031 C 26.046875 9.582031 26.289062 9.582031 26.53125 9.582031 C 26.859375 9.582031 27.183594 9.582031 27.511719 9.582031 C 27.695312 9.582031 27.882812 9.582031 28.070312 9.582031 C 28.480469 9.601562 28.480469 9.601562 28.640625 9.761719 C 28.65625 10.148438 28.660156 10.53125 28.660156 10.921875 C 28.660156 11.101562 28.660156 11.101562 28.660156 11.289062 C 28.664062 11.691406 28.660156 12.097656 28.660156 12.5 C 28.660156 12.777344 28.660156 13.058594 28.660156 13.335938 C 28.660156 13.921875 28.660156 14.507812 28.660156 15.09375 C 28.660156 15.847656 28.660156 16.601562 28.660156 17.355469 C 28.660156 17.929688 28.660156 18.507812 28.660156 19.082031 C 28.660156 19.363281 28.660156 19.640625 28.660156 19.917969 C 28.664062 20.304688 28.660156 20.691406 28.660156 21.078125 C 28.660156 21.195312 28.660156 21.308594 28.660156 21.429688 C 28.660156 22.222656 28.660156 22.222656 28.480469 22.398438 C 28.15625 22.414062 27.835938 22.417969 27.511719 22.417969 C 27.304688 22.417969 27.09375 22.417969 26.875 22.417969 C 26.640625 22.417969 26.40625 22.417969 26.171875 22.417969 C 25.925781 22.417969 25.679688 22.417969 25.433594 22.417969 C 24.761719 22.417969 24.09375 22.417969 23.421875 22.417969 C 22.722656 22.414062 22.023438 22.414062 21.328125 22.414062 C 20 22.414062 18.675781 22.414062 17.351562 22.410156 C 15.84375 22.410156 14.335938 22.410156 12.828125 22.40625 C 9.726562 22.40625 6.621094 22.402344 3.519531 22.398438 C 3.519531 22.347656 3.519531 22.292969 3.519531 22.238281 C 3.765625 22.238281 3.765625 22.238281 4.019531 22.242188 C 5.570312 22.242188 7.121094 22.238281 8.671875 22.226562 C 9.46875 22.222656 10.269531 22.21875 11.066406 22.222656 C 11.835938 22.222656 12.605469 22.21875 13.375 22.210938 C 13.667969 22.210938 13.960938 22.210938 14.257812 22.210938 C 14.667969 22.214844 15.078125 22.210938 15.488281 22.203125 C 15.613281 22.207031 15.734375 22.207031 15.859375 22.210938 C 16.316406 22.199219 16.6875 22.171875 17.054688 21.875 C 17.515625 21.339844 17.707031 20.820312 17.921875 20.160156 C 18.175781 19.679688 18.464844 19.226562 18.761719 18.769531 C 18.835938 18.648438 18.910156 18.527344 18.984375 18.402344 C 19.453125 17.671875 19.808594 17.292969 20.640625 16.960938 C 21.019531 16.648438 21.019531 16.648438 21.011719 16.089844 C 21.007812 15.539062 21.007812 15.539062 20.75 15.21875 C 20.460938 15.011719 20.460938 15.011719 20 14.878906 C 20 14.722656 20 14.5625 20 14.398438 C 19.894531 14.398438 19.789062 14.398438 19.679688 14.398438 C 19.652344 14.296875 19.621094 14.191406 19.59375 14.082031 C 19.21875 12.789062 18.671875 11.738281 17.953125 10.601562 C 17.761719 10.238281 17.761719 10.238281 17.761719 9.761719 C 13.0625 9.761719 8.363281 9.761719 3.519531 9.761719 C 3.519531 9.707031 3.519531 9.65625 3.519531 9.601562 Z M 3.519531 9.601562 "/>
<path style=" stroke:none;fill-rule:nonzero;fill:rgb(13.725491%,66.274512%,98.823529%);fill-opacity:1;" d="M 15.390625 10.308594 C 15.605469 10.335938 15.605469 10.335938 15.828125 10.359375 C 15.9375 10.371094 16.046875 10.386719 16.160156 10.398438 C 16.160156 10.609375 16.160156 10.824219 16.160156 11.039062 C 16.320312 11.039062 16.476562 11.039062 16.640625 11.039062 C 16.71875 11.277344 16.71875 11.277344 16.800781 11.519531 C 17 11.492188 17.203125 11.46875 17.410156 11.441406 C 17.800781 11.386719 18.164062 11.359375 18.558594 11.359375 C 19.199219 12.195312 19.679688 13.351562 19.679688 14.398438 C 19.785156 14.398438 19.890625 14.398438 20 14.398438 C 20 14.558594 20 14.71875 20 14.878906 C 20.09375 14.898438 20.191406 14.914062 20.289062 14.929688 C 20.714844 15.0625 20.871094 15.148438 21.121094 15.519531 C 21.199219 16.148438 21.226562 16.492188 20.851562 17.011719 C 20.480469 17.28125 20.480469 17.28125 20.109375 17.378906 C 19.460938 17.714844 19.210938 18.25 18.851562 18.871094 C 18.710938 19.101562 18.570312 19.332031 18.433594 19.5625 C 18.371094 19.667969 18.3125 19.769531 18.25 19.875 C 18.09375 20.136719 17.929688 20.386719 17.761719 20.640625 C 17.65625 20.640625 17.546875 20.640625 17.441406 20.640625 C 17.441406 20.535156 17.441406 20.429688 17.441406 20.320312 C 17.28125 20.320312 17.125 20.320312 16.960938 20.320312 C 16.960938 20.214844 16.960938 20.109375 16.960938 20 C 16.800781 19.945312 16.644531 19.894531 16.480469 19.839844 C 16.375 20.210938 16.269531 20.578125 16.160156 20.960938 C 15.140625 21.039062 15.140625 21.039062 14.738281 20.722656 C 14.265625 20.160156 13.875 19.558594 13.480469 18.941406 C 13.398438 18.816406 13.316406 18.691406 13.234375 18.5625 C 12.640625 17.640625 12.640625 17.640625 12.640625 17.28125 C 12.058594 17.28125 11.476562 17.28125 10.878906 17.28125 C 10.878906 16.488281 10.878906 15.695312 10.878906 14.878906 C 11.355469 14.878906 11.832031 14.878906 12.320312 14.878906 C 12.3125 14.738281 12.304688 14.597656 12.296875 14.453125 C 12.332031 13.589844 12.734375 12.921875 13.121094 12.160156 C 13.242188 11.914062 13.242188 11.914062 13.371094 11.660156 C 14.148438 10.164062 14.148438 10.164062 15.390625 10.308594 Z M 15.390625 10.308594 "/>
<path style=" stroke:none;fill-rule:nonzero;fill:rgb(16.470589%,20.392157%,56.862748%);fill-opacity:1;" d="M 3.519531 9.601562 C 6.773438 9.597656 10.023438 9.59375 13.273438 9.589844 C 14.785156 9.589844 16.292969 9.589844 17.804688 9.589844 C 19.121094 9.585938 20.433594 9.585938 21.75 9.585938 C 22.445312 9.585938 23.144531 9.585938 23.839844 9.582031 C 24.496094 9.582031 25.152344 9.582031 25.804688 9.582031 C 26.046875 9.582031 26.289062 9.582031 26.53125 9.582031 C 26.859375 9.582031 27.183594 9.582031 27.511719 9.582031 C 27.695312 9.582031 27.882812 9.582031 28.070312 9.582031 C 28.480469 9.601562 28.480469 9.601562 28.640625 9.761719 C 28.65625 10.148438 28.660156 10.535156 28.65625 10.921875 C 28.65625 11.046875 28.660156 11.167969 28.660156 11.292969 C 28.65625 11.695312 28.65625 12.101562 28.65625 12.503906 C 28.65625 12.785156 28.65625 13.066406 28.65625 13.34375 C 28.65625 14.082031 28.652344 14.820312 28.652344 15.554688 C 28.648438 16.308594 28.648438 17.058594 28.648438 17.8125 C 28.644531 19.289062 28.644531 20.765625 28.640625 22.238281 C 28.585938 22.238281 28.535156 22.238281 28.480469 22.238281 C 28.480469 19.917969 28.480469 17.59375 28.480469 15.199219 C 28.320312 15.253906 28.164062 15.304688 28 15.359375 C 27.828125 15.355469 27.65625 15.351562 27.480469 15.351562 C 26.832031 15.359375 26.371094 15.480469 25.761719 15.679688 C 25.761719 15.785156 25.761719 15.890625 25.761719 16 C 26.183594 15.945312 26.605469 15.894531 27.039062 15.839844 C 26.988281 15.945312 26.933594 16.050781 26.878906 16.160156 C 26.40625 16.160156 25.929688 16.160156 25.441406 16.160156 C 25.441406 15.839844 25.441406 15.519531 25.441406 15.199219 C 25.289062 15.203125 25.136719 15.207031 24.980469 15.210938 C 24.480469 15.199219 24.480469 15.199219 24.160156 15.039062 C 23.777344 15.132812 23.777344 15.132812 23.359375 15.28125 C 22.929688 15.425781 22.929688 15.425781 22.558594 15.519531 C 22.453125 15.46875 22.347656 15.414062 22.238281 15.359375 C 22.003906 15.4375 22.003906 15.4375 21.761719 15.519531 C 21.707031 15.363281 21.65625 15.203125 21.601562 15.039062 C 21.277344 14.960938 20.957031 14.882812 20.632812 14.816406 C 20.320312 14.71875 20.320312 14.71875 20 14.398438 C 19.839844 14.078125 19.839844 14.078125 19.839844 13.761719 C 19.734375 13.761719 19.628906 13.761719 19.519531 13.761719 C 19.460938 13.585938 19.402344 13.410156 19.339844 13.230469 C 18.945312 12.171875 18.386719 11.179688 17.761719 10.238281 C 17.761719 10.082031 17.761719 9.921875 17.761719 9.761719 C 13.0625 9.761719 8.363281 9.761719 3.519531 9.761719 C 3.519531 9.707031 3.519531 9.65625 3.519531 9.601562 Z M 22.238281 14.078125 C 22.082031 14.316406 22.082031 14.316406 21.921875 14.558594 C 22.078125 14.558594 22.238281 14.558594 22.398438 14.558594 C 22.398438 14.402344 22.398438 14.242188 22.398438 14.078125 C 22.347656 14.078125 22.292969 14.078125 22.238281 14.078125 Z M 22.238281 14.078125 "/>
<path style=" stroke:none;fill-rule:nonzero;fill:rgb(18.82353%,20.392157%,94.509804%);fill-opacity:1;" d="M 15.390625 10.308594 C 15.605469 10.335938 15.605469 10.335938 15.828125 10.359375 C 15.9375 10.371094 16.046875 10.386719 16.160156 10.398438 C 16.160156 10.609375 16.160156 10.824219 16.160156 11.039062 C 16.320312 11.039062 16.476562 11.039062 16.640625 11.039062 C 16.71875 11.277344 16.71875 11.277344 16.800781 11.519531 C 17 11.492188 17.203125 11.46875 17.410156 11.441406 C 17.800781 11.386719 18.164062 11.359375 18.558594 11.359375 C 19.199219 12.195312 19.679688 13.351562 19.679688 14.398438 C 19.785156 14.398438 19.890625 14.398438 20 14.398438 C 20 14.558594 20 14.71875 20 14.878906 C 20.160156 14.933594 20.316406 14.984375 20.480469 15.039062 C 20.328125 15.089844 20.175781 15.140625 20.019531 15.191406 C 19.542969 15.339844 19.542969 15.339844 19.199219 15.519531 C 19.199219 15.414062 19.199219 15.308594 19.199219 15.199219 C 18.996094 15.191406 18.789062 15.179688 18.578125 15.171875 C 18.464844 15.164062 18.351562 15.160156 18.230469 15.152344 C 18.128906 15.167969 18.027344 15.183594 17.921875 15.199219 C 17.8125 15.359375 17.707031 15.515625 17.601562 15.679688 C 17.050781 15.738281 17.050781 15.738281 16.480469 15.679688 C 16.320312 15.519531 16.160156 15.359375 16 15.199219 C 15.230469 15.105469 15.230469 15.105469 14.570312 15.441406 C 14.515625 15.519531 14.457031 15.597656 14.398438 15.679688 C 14.292969 15.523438 14.1875 15.363281 14.078125 15.199219 C 13.730469 15.105469 13.730469 15.105469 13.339844 15.089844 C 13.109375 15.074219 12.878906 15.058594 12.640625 15.039062 C 12.640625 15.566406 12.640625 16.097656 12.640625 16.640625 C 12.269531 16.640625 11.902344 16.640625 11.519531 16.640625 C 11.519531 16.535156 11.519531 16.429688 11.519531 16.320312 C 11.835938 16.320312 12.152344 16.320312 12.480469 16.320312 C 12.480469 16.160156 12.480469 16.003906 12.480469 15.839844 C 12.164062 15.839844 11.847656 15.839844 11.519531 15.839844 C 11.519531 15.734375 11.519531 15.628906 11.519531 15.519531 C 11.835938 15.519531 12.152344 15.519531 12.480469 15.519531 C 12.480469 15.363281 12.480469 15.203125 12.480469 15.039062 C 11.953125 15.039062 11.425781 15.039062 10.878906 15.039062 C 10.878906 14.988281 10.878906 14.933594 10.878906 14.878906 C 11.355469 14.878906 11.832031 14.878906 12.320312 14.878906 C 12.3125 14.738281 12.304688 14.597656 12.296875 14.453125 C 12.332031 13.589844 12.734375 12.921875 13.121094 12.160156 C 13.242188 11.914062 13.242188 11.914062 13.371094 11.660156 C 14.148438 10.164062 14.148438 10.164062 15.390625 10.308594 Z M 15.390625 10.308594 "/>
<path style=" stroke:none;fill-rule:nonzero;fill:rgb(18.039216%,31.764707%,64.313728%);fill-opacity:1;" d="M 19.679688 13.761719 C 19.898438 13.964844 20.113281 14.179688 20.320312 14.398438 C 20.320312 14.503906 20.320312 14.609375 20.320312 14.71875 C 20.847656 14.773438 21.375 14.824219 21.921875 14.878906 C 21.921875 15.039062 21.921875 15.195312 21.921875 15.359375 C 22.078125 15.308594 22.238281 15.253906 22.398438 15.199219 C 22.558594 15.253906 22.71875 15.304688 22.878906 15.359375 C 23.199219 15.269531 23.199219 15.269531 23.519531 15.121094 C 24.105469 14.863281 24.105469 14.863281 24.640625 15.039062 C 24.90625 15.097656 25.171875 15.148438 25.441406 15.199219 C 25.519531 15.4375 25.519531 15.4375 25.601562 15.679688 C 25.546875 15.785156 25.496094 15.890625 25.441406 16 C 25.546875 16 25.652344 16 25.761719 16 C 25.761719 15.894531 25.761719 15.789062 25.761719 15.679688 C 25.972656 15.597656 26.1875 15.519531 26.398438 15.441406 C 26.519531 15.394531 26.636719 15.351562 26.761719 15.304688 C 27.199219 15.199219 27.199219 15.199219 28.480469 15.199219 C 28.480469 16.203125 28.480469 17.207031 28.480469 18.238281 C 28.085938 18.1875 27.695312 18.132812 27.289062 18.078125 C 26.347656 17.957031 25.433594 17.886719 24.480469 17.921875 C 24.480469 18.027344 24.480469 18.132812 24.480469 18.238281 C 23.515625 18.292969 22.738281 18.144531 21.8125 17.863281 C 21.453125 17.746094 21.453125 17.746094 21.121094 17.761719 C 21.121094 17.867188 21.121094 17.972656 21.121094 18.078125 C 20.644531 18.078125 20.167969 18.078125 19.679688 18.078125 C 19.628906 18.238281 19.574219 18.398438 19.519531 18.558594 C 19.363281 18.613281 19.203125 18.664062 19.039062 18.71875 C 19.238281 18.167969 19.4375 17.710938 19.839844 17.28125 C 20.101562 17.164062 20.371094 17.058594 20.640625 16.960938 C 21.019531 16.648438 21.019531 16.648438 21.011719 16.089844 C 21.007812 15.539062 21.007812 15.539062 20.75 15.21875 C 20.460938 15.011719 20.460938 15.011719 20 14.878906 C 20 14.722656 20 14.5625 20 14.398438 C 19.894531 14.398438 19.789062 14.398438 19.679688 14.398438 C 19.679688 14.1875 19.679688 13.976562 19.679688 13.761719 Z M 22.238281 14.078125 C 22.34375 14.1875 22.453125 14.292969 22.558594 14.398438 C 22.402344 14.503906 22.242188 14.609375 22.078125 14.71875 C 22.078125 14.238281 22.078125 14.238281 22.238281 14.078125 Z M 22.238281 14.078125 "/>
<path style=" stroke:none;fill-rule:nonzero;fill:rgb(59.607846%,70.19608%,83.137256%);fill-opacity:1;" d="M 10.878906 15.039062 C 11.40625 15.039062 11.9375 15.039062 12.480469 15.039062 C 12.480469 15.199219 12.480469 15.355469 12.480469 15.519531 C 12.164062 15.519531 11.847656 15.519531 11.519531 15.519531 C 11.519531 15.625 11.519531 15.730469 11.519531 15.839844 C 11.835938 15.839844 12.152344 15.839844 12.480469 15.839844 C 12.480469 16 12.480469 16.15625 12.480469 16.320312 C 12.164062 16.320312 11.847656 16.320312 11.519531 16.320312 C 11.519531 16.425781 11.519531 16.53125 11.519531 16.640625 C 11.890625 16.640625 12.257812 16.640625 12.640625 16.640625 C 12.640625 16.113281 12.640625 15.585938 12.640625 15.039062 C 14.019531 15 14.019531 15 14.558594 15.359375 C 14.664062 15.253906 14.769531 15.148438 14.878906 15.039062 C 15.429688 14.988281 15.429688 14.988281 16 15.039062 C 16.164062 15.195312 16.324219 15.355469 16.480469 15.519531 C 17.058594 15.636719 17.058594 15.636719 17.601562 15.679688 C 17.707031 15.46875 17.8125 15.257812 17.921875 15.039062 C 18.820312 15 18.820312 15 19.359375 15.359375 C 19.464844 15.253906 19.570312 15.148438 19.679688 15.039062 C 20.171875 14.988281 20.503906 14.964844 20.941406 15.210938 C 21.222656 15.695312 21.179688 16.089844 21.121094 16.640625 C 20.941406 16.949219 20.941406 16.949219 20.640625 17.121094 C 20.171875 17.210938 20.171875 17.210938 19.679688 17.121094 C 19.300781 16.640625 19.300781 16.640625 19.039062 16.160156 C 18.933594 16.265625 18.828125 16.371094 18.71875 16.480469 C 18.878906 16.53125 19.035156 16.585938 19.199219 16.640625 C 19.199219 16.796875 19.199219 16.957031 19.199219 17.121094 C 18.726562 17.121094 18.25 17.121094 17.761719 17.121094 C 17.921875 16.476562 17.964844 16.414062 18.398438 16 C 18.453125 15.839844 18.503906 15.683594 18.558594 15.519531 C 18.296875 15.625 18.03125 15.730469 17.761719 15.839844 C 17.761719 16 17.761719 16.15625 17.761719 16.320312 C 17.335938 16.320312 16.914062 16.320312 16.480469 16.320312 C 16.480469 16.476562 16.480469 16.636719 16.480469 16.800781 C 15.878906 17.199219 15.589844 17.21875 14.878906 17.121094 C 14.488281 16.640625 14.488281 16.640625 14.238281 16.160156 C 14.292969 16.476562 14.34375 16.792969 14.398438 17.121094 C 14.1875 17.121094 13.976562 17.121094 13.761719 17.121094 C 13.707031 16.910156 13.65625 16.699219 13.601562 16.480469 C 13.496094 16.480469 13.390625 16.480469 13.28125 16.480469 C 13.28125 16.691406 13.28125 16.902344 13.28125 17.121094 C 12.480469 17.332031 11.699219 17.289062 10.878906 17.28125 C 10.878906 16.539062 10.878906 15.800781 10.878906 15.039062 Z M 10.878906 15.039062 "/>
<path style=" stroke:none;fill-rule:nonzero;fill:rgb(4.313726%,80.392158%,94.117647%);fill-opacity:1;" d="M 15.78125 11.332031 C 16.160156 11.679688 16.160156 11.679688 16.222656 12.050781 C 16.238281 12.523438 16.230469 12.996094 16.210938 13.46875 C 16.207031 13.636719 16.203125 13.800781 16.199219 13.972656 C 16.191406 14.382812 16.175781 14.789062 16.160156 15.199219 C 15.574219 15.199219 14.988281 15.199219 14.398438 15.199219 C 14.347656 14.9375 14.292969 14.671875 14.238281 14.398438 C 14.140625 14.394531 14.042969 14.386719 13.941406 14.378906 C 13.601562 14.238281 13.601562 14.238281 13.378906 13.839844 C 13.25 13.121094 13.335938 12.519531 13.601562 11.839844 C 14.191406 11.117188 14.925781 11.066406 15.78125 11.332031 Z M 15.78125 11.332031 "/>
<path style=" stroke:none;fill-rule:nonzero;fill:rgb(17.647059%,46.27451%,76.862746%);fill-opacity:1;" d="M 7.679688 14.558594 C 7.804688 14.59375 7.925781 14.628906 8.054688 14.664062 C 8.292969 14.730469 8.292969 14.730469 8.539062 14.800781 C 8.699219 14.84375 8.859375 14.890625 9.023438 14.933594 C 9.421875 15.054688 9.421875 15.054688 9.761719 15.039062 C 9.867188 15.144531 9.972656 15.25 10.078125 15.359375 C 10.34375 15.253906 10.609375 15.148438 10.878906 15.039062 C 10.878906 15.777344 10.878906 16.519531 10.878906 17.28125 C 11.144531 17.246094 11.414062 17.214844 11.6875 17.179688 C 12.265625 17.179688 12.539062 17.191406 12.984375 17.574219 C 13.289062 17.988281 13.546875 18.410156 13.800781 18.859375 C 13.894531 19.011719 13.984375 19.160156 14.082031 19.3125 C 14.550781 20.09375 14.550781 20.09375 14.71875 20.480469 C 14.640625 20.636719 14.640625 20.636719 14.558594 20.800781 C 14.402344 20.746094 14.242188 20.695312 14.078125 20.640625 C 14.078125 20.480469 14.078125 20.324219 14.078125 20.160156 C 13.972656 20.160156 13.867188 20.160156 13.761719 20.160156 C 13.679688 19.84375 13.679688 19.84375 13.601562 19.519531 C 13.496094 19.519531 13.390625 19.519531 13.28125 19.519531 C 13.207031 19.363281 13.136719 19.210938 13.058594 19.050781 C 12.855469 18.546875 12.855469 18.546875 12.480469 18.398438 C 12.300781 18.070312 12.300781 18.070312 12.160156 17.761719 C 11.128906 17.746094 10.136719 17.742188 9.121094 17.921875 C 9.015625 17.921875 8.910156 17.921875 8.800781 17.921875 C 8.800781 17.8125 8.800781 17.707031 8.800781 17.601562 C 8.640625 17.652344 8.484375 17.707031 8.320312 17.761719 C 8.160156 17.601562 8.003906 17.441406 7.839844 17.28125 C 8.347656 17.027344 8.902344 17.058594 9.460938 17.03125 C 9.582031 17.023438 9.703125 17.015625 9.824219 17.007812 C 10.125 16.992188 10.421875 16.976562 10.71875 16.960938 C 10.613281 16.644531 10.507812 16.328125 10.398438 16 C 10.242188 16.078125 10.242188 16.078125 10.078125 16.160156 C 8.898438 16.210938 7.730469 16.1875 6.558594 16 C 6.558594 15.894531 6.558594 15.789062 6.558594 15.679688 C 6.769531 15.679688 6.980469 15.679688 7.199219 15.679688 C 7.199219 15.523438 7.199219 15.363281 7.199219 15.199219 C 7.09375 15.09375 6.988281 14.988281 6.878906 14.878906 C 7.144531 14.878906 7.40625 14.878906 7.679688 14.878906 C 7.679688 14.773438 7.679688 14.667969 7.679688 14.558594 Z M 7.679688 14.558594 "/>
<path style=" stroke:none;fill-rule:nonzero;fill:rgb(62.7451%,74.901962%,82.745099%);fill-opacity:1;" d="M 17.921875 15.039062 C 18.820312 15 18.820312 15 19.359375 15.359375 C 19.464844 15.253906 19.570312 15.148438 19.679688 15.039062 C 20.171875 14.988281 20.503906 14.964844 20.941406 15.210938 C 21.222656 15.695312 21.179688 16.089844 21.121094 16.640625 C 20.941406 16.949219 20.941406 16.949219 20.640625 17.121094 C 20.171875 17.210938 20.171875 17.210938 19.679688 17.121094 C 19.300781 16.640625 19.300781 16.640625 19.039062 16.160156 C 18.933594 16.265625 18.828125 16.371094 18.71875 16.480469 C 18.878906 16.53125 19.035156 16.585938 19.199219 16.640625 C 19.199219 16.796875 19.199219 16.957031 19.199219 17.121094 C 18.726562 17.121094 18.25 17.121094 17.761719 17.121094 C 17.921875 16.476562 17.964844 16.414062 18.398438 16 C 18.453125 15.839844 18.503906 15.683594 18.558594 15.519531 C 18.296875 15.625 18.03125 15.730469 17.761719 15.839844 C 17.761719 16 17.761719 16.15625 17.761719 16.320312 C 17.640625 16.328125 17.523438 16.339844 17.402344 16.347656 C 17.246094 16.363281 17.089844 16.375 16.929688 16.390625 C 16.777344 16.402344 16.621094 16.414062 16.464844 16.429688 C 16 16.472656 16 16.472656 15.550781 16.574219 C 15.4375 16.597656 15.320312 16.617188 15.199219 16.640625 C 15.039062 16.480469 15.039062 16.480469 15.03125 16.070312 C 15.035156 15.941406 15.035156 15.8125 15.039062 15.679688 C 15.597656 15.539062 15.933594 15.535156 16.480469 15.679688 C 16.851562 15.6875 17.226562 15.6875 17.601562 15.679688 C 17.707031 15.46875 17.8125 15.257812 17.921875 15.039062 Z M 17.921875 15.039062 "/>
<path style=" stroke:none;fill-rule:nonzero;fill:rgb(9.803922%,55.29412%,96.862745%);fill-opacity:1;" d="M 15.390625 10.308594 C 15.605469 10.335938 15.605469 10.335938 15.828125 10.359375 C 15.9375 10.371094 16.046875 10.386719 16.160156 10.398438 C 16.160156 10.824219 16.160156 11.246094 16.160156 11.679688 C 16.0625 11.625 15.960938 11.566406 15.859375 11.511719 C 15.140625 11.292969 14.496094 11.414062 13.761719 11.519531 C 13.703125 11.824219 13.644531 12.125 13.589844 12.429688 C 13.558594 12.597656 13.527344 12.769531 13.496094 12.941406 C 13.441406 13.425781 13.476562 13.773438 13.601562 14.238281 C 13.863281 14.238281 14.128906 14.238281 14.398438 14.238281 C 14.453125 14.714844 14.503906 15.191406 14.558594 15.679688 C 14.402344 15.523438 14.242188 15.363281 14.078125 15.199219 C 13.714844 15.109375 13.714844 15.109375 13.328125 15.089844 C 13.101562 15.074219 12.875 15.058594 12.640625 15.039062 C 12.640625 15.566406 12.640625 16.097656 12.640625 16.640625 C 12.269531 16.640625 11.902344 16.640625 11.519531 16.640625 C 11.519531 16.535156 11.519531 16.429688 11.519531 16.320312 C 11.835938 16.320312 12.152344 16.320312 12.480469 16.320312 C 12.480469 16.160156 12.480469 16.003906 12.480469 15.839844 C 12.164062 15.839844 11.847656 15.839844 11.519531 15.839844 C 11.519531 15.734375 11.519531 15.628906 11.519531 15.519531 C 11.835938 15.519531 12.152344 15.519531 12.480469 15.519531 C 12.480469 15.363281 12.480469 15.203125 12.480469 15.039062 C 11.953125 15.039062 11.425781 15.039062 10.878906 15.039062 C 10.878906 14.988281 10.878906 14.933594 10.878906 14.878906 C 11.355469 14.878906 11.832031 14.878906 12.320312 14.878906 C 12.3125 14.738281 12.304688 14.597656 12.296875 14.453125 C 12.332031 13.589844 12.734375 12.921875 13.121094 12.160156 C 13.242188 11.914062 13.242188 11.914062 13.371094 11.660156 C 14.148438 10.164062 14.148438 10.164062 15.390625 10.308594 Z M 15.390625 10.308594 "/>
<path style=" stroke:none;fill-rule:nonzero;fill:rgb(18.431373%,48.235294%,77.254903%);fill-opacity:1;" d="M 19.679688 13.761719 C 19.898438 13.964844 20.113281 14.179688 20.320312 14.398438 C 20.320312 14.503906 20.320312 14.609375 20.320312 14.71875 C 20.847656 14.773438 21.375 14.824219 21.921875 14.878906 C 21.921875 15.039062 21.921875 15.195312 21.921875 15.359375 C 22.078125 15.308594 22.238281 15.253906 22.398438 15.199219 C 22.828125 15.269531 22.828125 15.269531 23.199219 15.359375 C 23.199219 15.414062 23.199219 15.464844 23.199219 15.519531 C 23.597656 15.597656 23.597656 15.597656 24 15.679688 C 24 15.785156 24 15.890625 24 16 C 23.839844 16.078125 23.839844 16.078125 23.679688 16.160156 C 23.734375 16.265625 23.785156 16.371094 23.839844 16.480469 C 23.117188 16.617188 22.71875 16.6875 22.078125 16.320312 C 21.582031 16.425781 21.582031 16.425781 21.410156 16.808594 C 21.367188 16.914062 21.324219 17.015625 21.28125 17.121094 C 22.292969 17.367188 23.28125 17.515625 24.320312 17.601562 C 24.160156 17.679688 24.160156 17.679688 24 17.761719 C 24.054688 17.917969 24.105469 18.078125 24.160156 18.238281 C 23.320312 18.308594 22.617188 18.097656 21.824219 17.863281 C 21.453125 17.746094 21.453125 17.746094 21.121094 17.761719 C 21.121094 17.867188 21.121094 17.972656 21.121094 18.078125 C 20.644531 18.078125 20.167969 18.078125 19.679688 18.078125 C 19.628906 18.238281 19.574219 18.398438 19.519531 18.558594 C 19.363281 18.613281 19.203125 18.664062 19.039062 18.71875 C 19.238281 18.167969 19.4375 17.710938 19.839844 17.28125 C 20.101562 17.164062 20.371094 17.058594 20.640625 16.960938 C 21.019531 16.648438 21.019531 16.648438 21.011719 16.089844 C 21.007812 15.539062 21.007812 15.539062 20.75 15.21875 C 20.460938 15.011719 20.460938 15.011719 20 14.878906 C 20 14.722656 20 14.5625 20 14.398438 C 19.894531 14.398438 19.789062 14.398438 19.679688 14.398438 C 19.679688 14.1875 19.679688 13.976562 19.679688 13.761719 Z M 22.238281 14.078125 C 22.34375 14.1875 22.453125 14.292969 22.558594 14.398438 C 22.402344 14.503906 22.242188 14.609375 22.078125 14.71875 C 22.078125 14.238281 22.078125 14.238281 22.238281 14.078125 Z M 22.238281 14.078125 "/>
<path style=" stroke:none;fill-rule:nonzero;fill:rgb(10.588235%,50.196081%,96.078432%);fill-opacity:1;" d="M 18.398438 12.640625 C 18.875 12.71875 18.875 12.71875 19.359375 12.800781 C 19.570312 13.378906 19.679688 13.773438 19.679688 14.398438 C 19.785156 14.398438 19.890625 14.398438 20 14.398438 C 20 14.558594 20 14.71875 20 14.878906 C 20.160156 14.933594 20.316406 14.984375 20.480469 15.039062 C 20.328125 15.089844 20.175781 15.140625 20.019531 15.191406 C 19.542969 15.339844 19.542969 15.339844 19.199219 15.519531 C 19.199219 15.414062 19.199219 15.308594 19.199219 15.199219 C 18.996094 15.191406 18.789062 15.179688 18.578125 15.171875 C 18.464844 15.164062 18.351562 15.160156 18.230469 15.152344 C 18.128906 15.167969 18.027344 15.183594 17.921875 15.199219 C 17.8125 15.359375 17.707031 15.515625 17.601562 15.679688 C 17.390625 15.628906 17.175781 15.574219 16.960938 15.519531 C 17.03125 15.433594 17.105469 15.347656 17.179688 15.261719 C 17.539062 14.738281 17.703125 14.195312 17.828125 13.578125 C 17.945312 13.199219 18.148438 12.945312 18.398438 12.640625 Z M 18.398438 12.640625 "/>
<path style=" stroke:none;fill-rule:nonzero;fill:rgb(2.745098%,90.588236%,94.117647%);fill-opacity:1;" d="M 12.800781 17.121094 C 13.691406 17.195312 14.28125 17.542969 15.019531 18.011719 C 15.183594 18.113281 15.183594 18.113281 15.355469 18.214844 C 15.625 18.382812 15.890625 18.550781 16.160156 18.71875 C 16.105469 19.089844 16.054688 19.460938 16 19.839844 C 15.660156 19.96875 15.660156 19.96875 15.199219 20 C 14.804688 19.777344 14.566406 19.53125 14.238281 19.199219 C 14.238281 19.042969 14.238281 18.882812 14.238281 18.71875 C 14.136719 18.679688 14.035156 18.640625 13.929688 18.601562 C 13.601562 18.398438 13.601562 18.398438 13.480469 18.058594 C 13.460938 17.910156 13.460938 17.910156 13.441406 17.761719 C 13.335938 17.761719 13.230469 17.761719 13.121094 17.761719 C 13.015625 17.546875 12.910156 17.335938 12.800781 17.121094 Z M 12.800781 17.121094 "/>
<path style=" stroke:none;fill-rule:nonzero;fill:rgb(5.882353%,75.294119%,94.117647%);fill-opacity:1;" d="M 19.039062 16 C 19.253906 16.320312 19.464844 16.640625 19.679688 16.960938 C 20.089844 17.078125 20.089844 17.078125 20.480469 17.121094 C 20.386719 17.152344 20.296875 17.1875 20.203125 17.21875 C 19.699219 17.527344 19.492188 17.914062 19.179688 18.410156 C 18.589844 19.34375 18.589844 19.34375 18.238281 19.519531 C 17.796875 19.296875 17.78125 19.011719 17.601562 18.558594 C 17.496094 18.507812 17.390625 18.453125 17.28125 18.398438 C 17.28125 18.292969 17.28125 18.1875 17.28125 18.078125 C 17.597656 17.972656 17.914062 17.867188 18.238281 17.761719 C 18.238281 17.65625 18.238281 17.546875 18.238281 17.441406 C 18.558594 17.386719 18.875 17.335938 19.199219 17.28125 C 19.199219 17.070312 19.199219 16.859375 19.199219 16.640625 C 18.988281 16.585938 18.777344 16.535156 18.558594 16.480469 C 18.71875 16.320312 18.875 16.164062 19.039062 16 Z M 19.039062 16 "/>
<path style=" stroke:none;fill-rule:nonzero;fill:rgb(6.666667%,72.941178%,94.117647%);fill-opacity:1;" d="M 12.480469 17.121094 C 12.796875 17.277344 12.796875 17.277344 13.121094 17.441406 C 13.121094 17.546875 13.121094 17.652344 13.121094 17.761719 C 13.226562 17.761719 13.332031 17.761719 13.441406 17.761719 C 13.601562 18.023438 13.761719 18.292969 13.921875 18.558594 C 14.027344 18.613281 14.132812 18.664062 14.238281 18.71875 C 14.238281 18.878906 14.238281 19.035156 14.238281 19.199219 C 14.453125 19.304688 14.664062 19.410156 14.878906 19.519531 C 14.878906 19.625 14.878906 19.730469 14.878906 19.839844 C 15.25 19.839844 15.621094 19.839844 16 19.839844 C 16.054688 19.734375 16.105469 19.628906 16.160156 19.519531 C 16.160156 19.996094 16.160156 20.46875 16.160156 20.960938 C 15.132812 21.039062 15.132812 21.039062 14.710938 20.683594 C 14.410156 20.332031 14.160156 19.988281 13.917969 19.597656 C 13.832031 19.464844 13.75 19.328125 13.660156 19.191406 C 13.574219 19.050781 13.488281 18.914062 13.398438 18.769531 C 13.3125 18.628906 13.222656 18.488281 13.132812 18.34375 C 12.480469 17.304688 12.480469 17.304688 12.480469 17.121094 Z M 12.480469 17.121094 "/>
<path style=" stroke:none;fill-rule:nonzero;fill:rgb(13.725491%,58.431375%,98.431373%);fill-opacity:1;" d="M 14.238281 16 C 14.480469 16.3125 14.703125 16.605469 14.878906 16.960938 C 15.691406 16.976562 15.691406 16.976562 16.480469 16.800781 C 16.480469 16.640625 16.480469 16.484375 16.480469 16.320312 C 16.902344 16.320312 17.324219 16.320312 17.761719 16.320312 C 17.539062 16.558594 17.539062 16.558594 17.28125 16.800781 C 17.175781 16.800781 17.070312 16.800781 16.960938 16.800781 C 16.960938 16.90625 16.960938 17.011719 16.960938 17.121094 C 16.679688 17.550781 16.679688 17.550781 16.160156 17.921875 C 15.292969 17.996094 14.398438 17.921875 13.640625 17.46875 C 13.460938 17.296875 13.460938 17.296875 13.28125 17.121094 C 13.28125 16.910156 13.28125 16.699219 13.28125 16.480469 C 13.386719 16.480469 13.492188 16.480469 13.601562 16.480469 C 13.652344 16.691406 13.707031 16.902344 13.761719 17.121094 C 13.917969 17.066406 14.078125 17.015625 14.238281 16.960938 C 14.195312 16.765625 14.195312 16.765625 14.148438 16.570312 C 14.125 16.433594 14.105469 16.300781 14.078125 16.160156 C 14.132812 16.105469 14.1875 16.054688 14.238281 16 Z M 14.238281 16 "/>
<path style=" stroke:none;fill-rule:nonzero;fill:rgb(13.333334%,41.960785%,91.764706%);fill-opacity:1;" d="M 18.519531 11.980469 C 18.945312 12.195312 19.042969 12.355469 19.199219 12.800781 C 19.078125 12.785156 18.957031 12.773438 18.828125 12.761719 C 18.386719 12.757812 18.386719 12.757812 18.109375 13.070312 C 17.890625 13.425781 17.890625 13.425781 17.941406 13.800781 C 17.910156 14.476562 17.566406 15.019531 17.121094 15.519531 C 16.792969 15.65625 16.792969 15.65625 16.480469 15.679688 C 16.160156 15.359375 16.160156 15.359375 16.140625 14.78125 C 16.148438 14.601562 16.152344 14.421875 16.160156 14.238281 C 16.265625 14.453125 16.371094 14.664062 16.480469 14.878906 C 16.890625 14.511719 16.890625 14.511719 17.28125 14.078125 C 17.304688 13.621094 17.304688 13.621094 17.171875 13.28125 C 17.121094 12.960938 17.121094 12.960938 17.285156 12.683594 C 17.96875 12.003906 17.96875 12.003906 18.519531 11.980469 Z M 18.519531 11.980469 "/>
<path style=" stroke:none;fill-rule:nonzero;fill:rgb(3.529412%,66.666669%,98.039216%);fill-opacity:1;" d="M 16.160156 12.960938 C 16.160156 13.699219 16.160156 14.4375 16.160156 15.199219 C 15.574219 15.199219 14.988281 15.199219 14.398438 15.199219 C 14.304688 14.757812 14.238281 14.375 14.238281 13.921875 C 14.53125 13.757812 14.820312 13.601562 15.109375 13.441406 C 15.273438 13.351562 15.433594 13.261719 15.597656 13.171875 C 16 12.960938 16 12.960938 16.160156 12.960938 Z M 16.160156 12.960938 "/>
<path style=" stroke:none;fill-rule:nonzero;fill:rgb(15.294118%,39.607844%,76.47059%);fill-opacity:1;" d="M 15.390625 10.308594 C 15.605469 10.335938 15.605469 10.335938 15.828125 10.359375 C 15.9375 10.371094 16.046875 10.386719 16.160156 10.398438 C 16.160156 10.824219 16.160156 11.246094 16.160156 11.679688 C 16.0625 11.625 15.960938 11.566406 15.859375 11.511719 C 15.140625 11.292969 14.496094 11.414062 13.761719 11.519531 C 13.71875 11.652344 13.679688 11.785156 13.640625 11.921875 C 13.410156 12.5625 13.117188 13.15625 12.800781 13.761719 C 12.679688 13.402344 12.617188 13.195312 12.734375 12.828125 C 12.816406 12.679688 12.816406 12.679688 12.898438 12.53125 C 12.960938 12.421875 13.019531 12.3125 13.082031 12.199219 C 13.144531 12.078125 13.210938 11.960938 13.28125 11.839844 C 13.382812 11.644531 13.382812 11.644531 13.484375 11.441406 C 13.550781 11.3125 13.621094 11.183594 13.691406 11.050781 C 13.785156 10.871094 13.785156 10.871094 13.878906 10.6875 C 14.273438 10.125 14.78125 10.238281 15.390625 10.308594 Z M 15.390625 10.308594 "/>
<path style=" stroke:none;fill-rule:nonzero;fill:rgb(20%,19.607843%,76.47059%);fill-opacity:1;" d="M 16.160156 9.761719 C 16.6875 9.761719 17.214844 9.761719 17.761719 9.761719 C 18.398438 11 18.398438 11 18.398438 11.359375 C 17.871094 11.464844 17.34375 11.570312 16.800781 11.679688 C 16.746094 11.46875 16.695312 11.257812 16.640625 11.039062 C 16.480469 11.039062 16.324219 11.039062 16.160156 11.039062 C 16.160156 10.617188 16.160156 10.195312 16.160156 9.761719 Z M 16.160156 9.761719 "/>
<path style=" stroke:none;fill-rule:nonzero;fill:rgb(18.039216%,40.784314%,73.725492%);fill-opacity:1;" d="M 21.3125 17.101562 C 21.898438 17.335938 22.464844 17.390625 23.089844 17.460938 C 23.269531 17.480469 23.269531 17.480469 23.449219 17.5 C 23.738281 17.535156 24.03125 17.566406 24.320312 17.601562 C 24.214844 17.652344 24.109375 17.707031 24 17.761719 C 24.054688 17.917969 24.105469 18.078125 24.160156 18.238281 C 23.320312 18.308594 22.617188 18.097656 21.824219 17.863281 C 21.453125 17.746094 21.453125 17.746094 21.121094 17.761719 C 21.121094 17.867188 21.121094 17.972656 21.121094 18.078125 C 20.644531 18.078125 20.167969 18.078125 19.679688 18.078125 C 19.628906 18.238281 19.574219 18.398438 19.519531 18.558594 C 19.363281 18.613281 19.203125 18.664062 19.039062 18.71875 C 19.238281 18.167969 19.421875 17.699219 19.839844 17.28125 C 20.792969 16.890625 20.792969 16.890625 21.3125 17.101562 Z M 21.3125 17.101562 "/>
<path style=" stroke:none;fill-rule:nonzero;fill:rgb(23.137255%,30.980393%,71.764708%);fill-opacity:1;" d="M 11.191406 17.558594 C 11.363281 17.554688 11.535156 17.550781 11.714844 17.546875 C 11.863281 17.566406 12.007812 17.582031 12.160156 17.601562 C 12.265625 17.757812 12.371094 17.917969 12.480469 18.078125 C 12.332031 18.058594 12.183594 18.035156 12.03125 18.011719 C 11.078125 18.003906 10.347656 18.683594 9.601562 19.199219 C 9.167969 19.488281 9.167969 19.488281 8.800781 19.679688 C 8.695312 19.628906 8.589844 19.574219 8.480469 19.519531 C 8.585938 19.363281 8.691406 19.203125 8.800781 19.039062 C 8.695312 18.933594 8.589844 18.828125 8.480469 18.71875 C 8.742188 18.667969 9.007812 18.613281 9.28125 18.558594 C 9.28125 18.453125 9.28125 18.347656 9.28125 18.238281 C 9.542969 18.070312 9.808594 17.914062 10.078125 17.761719 C 10.371094 17.46875 10.800781 17.566406 11.191406 17.558594 Z M 11.191406 17.558594 "/>
<path style=" stroke:none;fill-rule:nonzero;fill:rgb(13.725491%,43.137255%,79.215688%);fill-opacity:1;" d="M 10.878906 17.28125 C 11.492188 17.179688 12.03125 17.152344 12.640625 17.28125 C 13.160156 17.726562 13.464844 18.265625 13.800781 18.859375 C 13.894531 19.011719 13.984375 19.160156 14.082031 19.3125 C 14.550781 20.09375 14.550781 20.09375 14.71875 20.480469 C 14.667969 20.585938 14.613281 20.691406 14.558594 20.800781 C 14.402344 20.746094 14.242188 20.695312 14.078125 20.640625 C 14.078125 20.480469 14.078125 20.324219 14.078125 20.160156 C 13.972656 20.160156 13.867188 20.160156 13.761719 20.160156 C 13.707031 19.949219 13.65625 19.738281 13.601562 19.519531 C 13.496094 19.519531 13.390625 19.519531 13.28125 19.519531 C 13.207031 19.363281 13.136719 19.210938 13.058594 19.050781 C 12.855469 18.546875 12.855469 18.546875 12.480469 18.398438 C 12.4375 18.292969 12.390625 18.1875 12.347656 18.078125 C 12.1875 17.726562 12.1875 17.726562 11.8125 17.664062 C 11.617188 17.652344 11.617188 17.652344 11.421875 17.640625 C 11.222656 17.625 11.222656 17.625 11.023438 17.613281 C 10.921875 17.609375 10.824219 17.605469 10.71875 17.601562 C 10.773438 17.496094 10.824219 17.390625 10.878906 17.28125 Z M 10.878906 17.28125 "/>
<path style=" stroke:none;fill-rule:nonzero;fill:rgb(21.568628%,41.568628%,75.686276%);fill-opacity:1;" d="M 7.679688 14.558594 C 7.804688 14.59375 7.925781 14.628906 8.054688 14.664062 C 8.292969 14.730469 8.292969 14.730469 8.539062 14.800781 C 8.699219 14.84375 8.859375 14.890625 9.023438 14.933594 C 9.421875 15.054688 9.421875 15.054688 9.761719 15.039062 C 9.8125 15.25 9.867188 15.460938 9.921875 15.679688 C 9.757812 15.675781 9.597656 15.671875 9.433594 15.671875 C 8.8125 15.679688 8.226562 15.746094 7.609375 15.839844 C 7.414062 15.871094 7.214844 15.898438 7.011719 15.929688 C 6.863281 15.953125 6.714844 15.976562 6.558594 16 C 6.558594 15.894531 6.558594 15.789062 6.558594 15.679688 C 6.769531 15.679688 6.980469 15.679688 7.199219 15.679688 C 7.199219 15.523438 7.199219 15.363281 7.199219 15.199219 C 7.09375 15.09375 6.988281 14.988281 6.878906 14.878906 C 7.144531 14.878906 7.40625 14.878906 7.679688 14.878906 C 7.679688 14.773438 7.679688 14.667969 7.679688 14.558594 Z M 7.679688 14.558594 "/>
<path style=" stroke:none;fill-rule:nonzero;fill:rgb(17.647059%,26.666668%,86.274511%);fill-opacity:1;" d="M 16.320312 19.679688 C 16.53125 19.785156 16.742188 19.890625 16.960938 20 C 16.960938 20.105469 16.960938 20.210938 16.960938 20.320312 C 17.117188 20.320312 17.277344 20.320312 17.441406 20.320312 C 17.492188 20.476562 17.546875 20.636719 17.601562 20.800781 C 17.441406 21.039062 17.441406 21.039062 17.28125 21.28125 C 16.804688 21.199219 16.804688 21.199219 16.320312 21.121094 C 16.320312 21.226562 16.320312 21.332031 16.320312 21.441406 C 15.898438 21.441406 15.476562 21.441406 15.039062 21.441406 C 14.933594 21.230469 14.828125 21.019531 14.71875 20.800781 C 15.195312 20.851562 15.671875 20.90625 16.160156 20.960938 C 16.210938 20.539062 16.265625 20.113281 16.320312 19.679688 Z M 16.320312 19.679688 "/>
<path style=" stroke:none;fill-rule:nonzero;fill:rgb(85.882354%,89.411765%,91.37255%);fill-opacity:1;" d="M 20 15.039062 C 20.761719 15.160156 20.761719 15.160156 21.121094 15.519531 C 21.207031 16.488281 21.207031 16.488281 20.941406 16.949219 C 20.503906 17.195312 20.171875 17.171875 19.679688 17.121094 C 19.359375 16.800781 19.359375 16.800781 19.339844 16.21875 C 19.347656 16.042969 19.351562 15.863281 19.359375 15.679688 C 19.464844 15.679688 19.570312 15.679688 19.679688 15.679688 C 19.785156 15.945312 19.890625 16.207031 20 16.480469 C 20.160156 16.480469 20.316406 16.480469 20.480469 16.480469 C 20.480469 16.214844 20.480469 15.953125 20.480469 15.679688 C 20.214844 15.628906 19.953125 15.574219 19.679688 15.519531 C 19.785156 15.363281 19.890625 15.203125 20 15.039062 Z M 20 15.039062 "/>
<path style=" stroke:none;fill-rule:nonzero;fill:rgb(12.156863%,58.431375%,90.196079%);fill-opacity:1;" d="M 18.878906 12.640625 C 19.039062 12.691406 19.195312 12.746094 19.359375 12.800781 C 19.601562 13.375 19.679688 13.769531 19.679688 14.398438 C 19.785156 14.398438 19.890625 14.398438 20 14.398438 C 20 14.558594 20 14.71875 20 14.878906 C 20.160156 14.933594 20.316406 14.984375 20.480469 15.039062 C 20.328125 15.089844 20.175781 15.140625 20.019531 15.191406 C 19.542969 15.339844 19.542969 15.339844 19.199219 15.519531 C 19.199219 15.414062 19.199219 15.308594 19.199219 15.199219 C 18.832031 15.148438 18.460938 15.09375 18.078125 15.039062 C 18.078125 14.988281 18.078125 14.933594 18.078125 14.878906 C 18.449219 14.878906 18.820312 14.878906 19.199219 14.878906 C 19.148438 14.792969 19.09375 14.703125 19.042969 14.613281 C 18.851562 14.179688 18.847656 13.871094 18.859375 13.398438 C 18.863281 13.257812 18.867188 13.113281 18.867188 12.96875 C 18.875 12.804688 18.875 12.804688 18.878906 12.640625 Z M 18.878906 12.640625 "/>
<path style=" stroke:none;fill-rule:nonzero;fill:rgb(20%,20.784314%,71.372551%);fill-opacity:1;" d="M 17.601562 20.640625 C 17.703125 20.925781 17.703125 20.925781 17.761719 21.28125 C 17.527344 21.703125 17.207031 21.984375 16.800781 22.238281 C 16.339844 22.320312 15.988281 22.289062 15.519531 22.238281 C 15.46875 22.082031 15.414062 21.921875 15.359375 21.761719 C 15.253906 21.65625 15.148438 21.546875 15.039062 21.441406 C 15.460938 21.441406 15.886719 21.441406 16.320312 21.441406 C 16.320312 21.335938 16.320312 21.230469 16.320312 21.121094 C 16.472656 21.128906 16.625 21.140625 16.78125 21.148438 C 17.027344 21.136719 17.027344 21.136719 17.28125 21.121094 C 17.386719 20.960938 17.492188 20.804688 17.601562 20.640625 Z M 17.601562 20.640625 "/>
<path style=" stroke:none;fill-rule:nonzero;fill:rgb(10.980392%,51.764709%,95.686275%);fill-opacity:1;" d="M 16.320312 18.71875 C 16.53125 18.71875 16.742188 18.71875 16.960938 18.71875 C 16.96875 18.859375 16.96875 18.859375 16.980469 19 C 17.191406 19.542969 17.59375 19.710938 18.078125 20 C 17.972656 20.210938 17.867188 20.421875 17.761719 20.640625 C 17.65625 20.640625 17.546875 20.640625 17.441406 20.640625 C 17.441406 20.535156 17.441406 20.429688 17.441406 20.320312 C 17.28125 20.320312 17.125 20.320312 16.960938 20.320312 C 16.960938 20.214844 16.960938 20.109375 16.960938 20 C 16.800781 19.945312 16.644531 19.894531 16.480469 19.839844 C 16.375 19.945312 16.269531 20.050781 16.160156 20.160156 C 16.144531 19.175781 16.144531 19.175781 16.160156 18.878906 C 16.210938 18.828125 16.265625 18.773438 16.320312 18.71875 Z M 16.320312 18.71875 "/>
<path style=" stroke:none;fill-rule:nonzero;fill:rgb(7.058824%,29.411766%,98.823529%);fill-opacity:1;" d="M 16.160156 12.960938 C 16.789062 13.171875 17.15625 13.425781 17.601562 13.921875 C 16.859375 14.859375 16.859375 14.859375 16.320312 15.039062 C 16.144531 14.335938 16.148438 13.683594 16.160156 12.960938 Z M 16.160156 12.960938 "/>
<path style=" stroke:none;fill-rule:nonzero;fill:rgb(22.352941%,30.980393%,70.980394%);fill-opacity:1;" d="M 21.28125 18.238281 C 22.308594 18.714844 22.308594 18.714844 23.359375 19.199219 C 23.203125 19.277344 23.203125 19.277344 23.039062 19.359375 C 23.09375 19.570312 23.144531 19.78125 23.199219 20 C 22.492188 19.917969 22.132812 19.664062 21.601562 19.199219 C 21.441406 19.09375 21.28125 18.988281 21.121094 18.878906 C 21.171875 18.667969 21.226562 18.457031 21.28125 18.238281 Z M 21.28125 18.238281 "/>
<path style=" stroke:none;fill-rule:nonzero;fill:rgb(6.27451%,74.901962%,91.764706%);fill-opacity:1;" d="M 19.039062 16 C 19.253906 16.320312 19.464844 16.640625 19.679688 16.960938 C 20.089844 17.078125 20.089844 17.078125 20.480469 17.121094 C 20.339844 17.167969 20.339844 17.167969 20.199219 17.21875 C 19.710938 17.519531 19.496094 17.914062 19.199219 18.398438 C 19.09375 18.347656 18.988281 18.292969 18.878906 18.238281 C 18.878906 18.082031 18.878906 17.921875 18.878906 17.761719 C 18.617188 17.8125 18.351562 17.867188 18.078125 17.921875 C 18.132812 17.761719 18.1875 17.601562 18.238281 17.441406 C 18.558594 17.386719 18.875 17.335938 19.199219 17.28125 C 19.199219 17.070312 19.199219 16.859375 19.199219 16.640625 C 18.988281 16.585938 18.777344 16.535156 18.558594 16.480469 C 18.71875 16.320312 18.875 16.164062 19.039062 16 Z M 19.039062 16 "/>
<path style=" stroke:none;fill-rule:nonzero;fill:rgb(12.156863%,45.882353%,85.882354%);fill-opacity:1;" d="M 12.480469 13.761719 C 12.53125 13.761719 12.585938 13.761719 12.640625 13.761719 C 12.804688 14.757812 12.773438 15.640625 12.640625 16.640625 C 12.269531 16.640625 11.902344 16.640625 11.519531 16.640625 C 11.519531 16.535156 11.519531 16.429688 11.519531 16.320312 C 11.835938 16.320312 12.152344 16.320312 12.480469 16.320312 C 12.480469 16.160156 12.480469 16.003906 12.480469 15.839844 C 12.164062 15.839844 11.847656 15.839844 11.519531 15.839844 C 11.519531 15.734375 11.519531 15.628906 11.519531 15.519531 C 11.835938 15.519531 12.152344 15.519531 12.480469 15.519531 C 12.480469 15.363281 12.480469 15.203125 12.480469 15.039062 C 11.953125 15.039062 11.425781 15.039062 10.878906 15.039062 C 10.878906 14.988281 10.878906 14.933594 10.878906 14.878906 C 11.355469 14.878906 11.832031 14.878906 12.320312 14.878906 C 12.316406 14.726562 12.3125 14.570312 12.308594 14.410156 C 12.320312 13.921875 12.320312 13.921875 12.480469 13.761719 Z M 12.480469 13.761719 "/>
<path style=" stroke:none;fill-rule:nonzero;fill:rgb(9.019608%,63.529414%,83.92157%);fill-opacity:1;" d="M 14.929688 10.539062 C 15.382812 10.554688 15.734375 10.582031 16.160156 10.71875 C 16.160156 11.035156 16.160156 11.355469 16.160156 11.679688 C 16.007812 11.597656 16.007812 11.597656 15.851562 11.511719 C 15.175781 11.304688 14.605469 11.410156 13.921875 11.519531 C 14.289062 10.5625 14.289062 10.5625 14.929688 10.539062 Z M 14.929688 10.539062 "/>
<path style=" stroke:none;fill-rule:nonzero;fill:rgb(5.882353%,41.176471%,98.431373%);fill-opacity:1;" d="M 17.601562 13.761719 C 17.707031 13.8125 17.8125 13.867188 17.921875 13.921875 C 17.71875 14.640625 17.457031 15.117188 16.960938 15.679688 C 16.339844 15.539062 16.339844 15.539062 16.160156 15.359375 C 16.152344 14.988281 16.152344 14.613281 16.160156 14.238281 C 16.265625 14.453125 16.371094 14.664062 16.480469 14.878906 C 16.605469 14.753906 16.730469 14.628906 16.859375 14.5 C 17.105469 14.253906 17.351562 14.007812 17.601562 13.761719 Z M 17.601562 13.761719 "/>
<path style=" stroke:none;fill-rule:nonzero;fill:rgb(8.627451%,64.705884%,95.686275%);fill-opacity:1;" d="M 17.558594 18.421875 C 17.679688 18.519531 17.796875 18.617188 17.921875 18.71875 C 17.921875 18.929688 17.921875 19.140625 17.921875 19.359375 C 18.078125 19.414062 18.238281 19.464844 18.398438 19.519531 C 18.242188 19.679688 18.082031 19.835938 17.921875 20 C 17.441406 19.71875 17.441406 19.71875 16.960938 19.359375 C 16.960938 19.148438 16.960938 18.9375 16.960938 18.71875 C 16.800781 18.667969 16.644531 18.613281 16.480469 18.558594 C 16.925781 18.246094 17.042969 18.207031 17.558594 18.421875 Z M 17.558594 18.421875 "/>
<path style=" stroke:none;fill-rule:nonzero;fill:rgb(5.490196%,83.92157%,94.509804%);fill-opacity:1;" d="M 12.800781 17.121094 C 13.273438 17.199219 13.273438 17.199219 13.761719 17.28125 C 13.707031 17.386719 13.65625 17.492188 13.601562 17.601562 C 13.929688 17.960938 14.082031 18.082031 14.558594 18.238281 C 14.746094 18.523438 14.746094 18.523438 14.910156 18.871094 C 14.964844 18.984375 15.019531 19.097656 15.078125 19.214844 C 15.199219 19.519531 15.199219 19.519531 15.199219 19.839844 C 14.878906 19.839844 14.878906 19.839844 14.539062 19.550781 C 14.238281 19.199219 14.238281 19.199219 14.238281 18.71875 C 14.136719 18.679688 14.035156 18.640625 13.929688 18.601562 C 13.601562 18.398438 13.601562 18.398438 13.480469 18.058594 C 13.460938 17.910156 13.460938 17.910156 13.441406 17.761719 C 13.335938 17.761719 13.230469 17.761719 13.121094 17.761719 C 13.015625 17.546875 12.910156 17.335938 12.800781 17.121094 Z M 12.800781 17.121094 "/>
<path style=" stroke:none;fill-rule:nonzero;fill:rgb(16.470589%,66.666669%,98.039216%);fill-opacity:1;" d="M 17.601562 16.800781 C 17.652344 16.90625 17.707031 17.011719 17.761719 17.121094 C 18.234375 17.121094 18.710938 17.121094 19.199219 17.121094 C 18.558594 17.441406 18.558594 17.441406 18.238281 17.441406 C 18.238281 17.546875 18.238281 17.652344 18.238281 17.761719 C 17.449219 18.15625 17.449219 18.15625 16.640625 18.558594 C 16.585938 18.402344 16.535156 18.242188 16.480469 18.078125 C 16.738281 17.804688 17.007812 17.539062 17.28125 17.28125 C 17.386719 17.28125 17.492188 17.28125 17.601562 17.28125 C 17.601562 17.121094 17.601562 16.964844 17.601562 16.800781 Z M 17.601562 16.800781 "/>
<path style=" stroke:none;fill-rule:nonzero;fill:rgb(7.843138%,64.705884%,98.039216%);fill-opacity:1;" d="M 18.558594 15.519531 C 18.472656 16.132812 18.195312 16.378906 17.761719 16.800781 C 17.707031 16.957031 17.65625 17.117188 17.601562 17.28125 C 17.140625 17.640625 17.140625 17.640625 16.640625 17.921875 C 16.480469 17.867188 16.324219 17.8125 16.160156 17.761719 C 16.378906 17.441406 16.378906 17.441406 16.640625 17.121094 C 16.746094 17.121094 16.851562 17.121094 16.960938 17.121094 C 16.960938 17.015625 16.960938 16.910156 16.960938 16.800781 C 17.222656 16.695312 17.488281 16.589844 17.761719 16.480469 C 17.761719 16.269531 17.761719 16.058594 17.761719 15.839844 C 18.238281 15.519531 18.238281 15.519531 18.558594 15.519531 Z M 18.558594 15.519531 "/>
<path style=" stroke:none;fill-rule:nonzero;fill:rgb(15.294118%,29.019609%,97.254902%);fill-opacity:1;" d="M 18.558594 11.359375 C 18.828125 11.761719 18.828125 11.761719 19.039062 12.160156 C 18.898438 12.144531 18.757812 12.128906 18.609375 12.109375 C 17.910156 12.175781 17.722656 12.433594 17.28125 12.960938 C 17.121094 13.199219 17.121094 13.199219 16.960938 13.441406 C 16.855469 13.386719 16.75 13.335938 16.640625 13.28125 C 16.730469 12.671875 16.988281 12.386719 17.421875 11.960938 C 17.585938 11.789062 17.585938 11.789062 17.757812 11.617188 C 18.078125 11.359375 18.078125 11.359375 18.558594 11.359375 Z M 18.558594 11.359375 "/>
<path style=" stroke:none;fill-rule:nonzero;fill:rgb(79.607844%,86.274511%,89.411765%);fill-opacity:1;" d="M 18.878906 15.359375 C 18.933594 15.359375 18.984375 15.359375 19.039062 15.359375 C 19.058594 15.738281 19.058594 15.738281 19.039062 16.160156 C 18.933594 16.265625 18.828125 16.371094 18.71875 16.480469 C 18.878906 16.53125 19.035156 16.585938 19.199219 16.640625 C 19.199219 16.796875 19.199219 16.957031 19.199219 17.121094 C 18.726562 17.121094 18.25 17.121094 17.761719 17.121094 C 17.914062 16.507812 18 16.328125 18.398438 15.878906 C 18.484375 15.78125 18.570312 15.683594 18.660156 15.582031 C 18.769531 15.472656 18.769531 15.472656 18.878906 15.359375 Z M 18.878906 15.359375 "/>
<path style=" stroke:none;fill-rule:nonzero;fill:rgb(87.058824%,89.803922%,92.941177%);fill-opacity:1;" d="M 12.800781 16 C 13.222656 16 13.644531 16 14.078125 16 C 14.1875 16.371094 14.292969 16.738281 14.398438 17.121094 C 14.1875 17.121094 13.976562 17.121094 13.761719 17.121094 C 13.707031 16.910156 13.65625 16.699219 13.601562 16.480469 C 13.496094 16.480469 13.390625 16.480469 13.28125 16.480469 C 13.28125 16.691406 13.28125 16.902344 13.28125 17.121094 C 13.121094 17.121094 12.964844 17.121094 12.800781 17.121094 C 12.800781 16.75 12.800781 16.378906 12.800781 16 Z M 12.800781 16 "/>
<path style=" stroke:none;fill-rule:nonzero;fill:rgb(85.882354%,90.588236%,94.117647%);fill-opacity:1;" d="M 14.558594 15.839844 C 14.664062 15.839844 14.769531 15.839844 14.878906 15.839844 C 14.984375 16.050781 15.089844 16.261719 15.199219 16.480469 C 15.621094 16.425781 16.042969 16.375 16.480469 16.320312 C 16.480469 16.476562 16.480469 16.636719 16.480469 16.800781 C 15.890625 17.191406 15.574219 17.183594 14.878906 17.121094 C 14.535156 16.605469 14.527344 16.433594 14.558594 15.839844 Z M 14.558594 15.839844 "/>
<path style=" stroke:none;fill-rule:nonzero;fill:rgb(7.450981%,57.254905%,96.862745%);fill-opacity:1;" d="M 15.199219 15.519531 C 15.648438 15.589844 16.050781 15.695312 16.480469 15.839844 C 16.480469 16 16.480469 16.15625 16.480469 16.320312 C 16.070312 16.578125 15.890625 16.648438 15.398438 16.578125 C 15.28125 16.546875 15.164062 16.515625 15.039062 16.480469 C 15.03125 16.214844 15.035156 15.945312 15.039062 15.679688 C 15.09375 15.628906 15.144531 15.574219 15.199219 15.519531 Z M 15.199219 15.519531 "/>
<path style=" stroke:none;fill-rule:nonzero;fill:rgb(18.82353%,35.294119%,69.01961%);fill-opacity:1;" d="M 24 15.039062 C 24 15.144531 24 15.25 24 15.359375 C 24.371094 15.359375 24.738281 15.359375 25.121094 15.359375 C 24.625 16.035156 24.625 16.035156 24.320312 16.320312 C 23.871094 16.378906 23.871094 16.378906 23.519531 16.320312 C 23.574219 16.214844 23.625 16.109375 23.679688 16 C 23.785156 16 23.890625 16 24 16 C 24 15.894531 24 15.789062 24 15.679688 C 23.683594 15.679688 23.367188 15.679688 23.039062 15.679688 C 23.640625 15.039062 23.640625 15.039062 24 15.039062 Z M 24 15.039062 "/>
<path style=" stroke:none;fill-rule:nonzero;fill:rgb(20%,33.333334%,73.333335%);fill-opacity:1;" d="M 19.679688 13.761719 C 19.898438 13.964844 20.113281 14.179688 20.320312 14.398438 C 20.320312 14.503906 20.320312 14.609375 20.320312 14.71875 C 20.847656 14.773438 21.375 14.824219 21.921875 14.878906 C 21.761719 15.117188 21.761719 15.117188 21.601562 15.359375 C 21.085938 15.441406 20.824219 15.371094 20.351562 15.148438 C 20.234375 15.0625 20.117188 14.972656 20 14.878906 C 20 14.722656 20 14.5625 20 14.398438 C 19.894531 14.398438 19.789062 14.398438 19.679688 14.398438 C 19.679688 14.1875 19.679688 13.976562 19.679688 13.761719 Z M 22.238281 14.078125 C 22.34375 14.1875 22.453125 14.292969 22.558594 14.398438 C 22.402344 14.503906 22.242188 14.609375 22.078125 14.71875 C 22.078125 14.238281 22.078125 14.238281 22.238281 14.078125 Z M 22.238281 14.078125 "/>
<path style=" stroke:none;fill-rule:nonzero;fill:rgb(19.607843%,19.215687%,86.274511%);fill-opacity:1;" d="M 17.539062 10.789062 C 17.699219 10.835938 17.859375 10.882812 18.027344 10.929688 C 18.148438 10.964844 18.273438 11.003906 18.398438 11.039062 C 18.398438 11.144531 18.398438 11.25 18.398438 11.359375 C 17.871094 11.464844 17.34375 11.570312 16.800781 11.679688 C 16.746094 11.46875 16.695312 11.257812 16.640625 11.039062 C 16.535156 11.039062 16.429688 11.039062 16.320312 11.039062 C 16.320312 10.933594 16.320312 10.828125 16.320312 10.71875 C 16.785156 10.488281 17.050781 10.648438 17.539062 10.789062 Z M 17.539062 10.789062 "/>
<path style=" stroke:none;fill-rule:nonzero;fill:rgb(19.215687%,36.470589%,73.725492%);fill-opacity:1;" d="M 11.191406 17.558594 C 11.363281 17.554688 11.535156 17.550781 11.714844 17.546875 C 11.863281 17.566406 12.007812 17.582031 12.160156 17.601562 C 12.265625 17.757812 12.371094 17.917969 12.480469 18.078125 C 12.347656 18.078125 12.21875 18.074219 12.082031 18.070312 C 11.910156 18.066406 11.738281 18.0625 11.558594 18.058594 C 11.390625 18.054688 11.21875 18.050781 11.042969 18.046875 C 10.566406 18.078125 10.328125 18.171875 9.921875 18.398438 C 9.558594 18.339844 9.558594 18.339844 9.28125 18.238281 C 9.410156 18.164062 9.539062 18.089844 9.671875 18.011719 C 10.277344 17.640625 10.441406 17.570312 11.191406 17.558594 Z M 11.191406 17.558594 "/>
<path style=" stroke:none;fill-rule:nonzero;fill:rgb(20.392157%,27.058825%,67.058825%);fill-opacity:1;" d="M 21.761719 19.199219 C 21.910156 19.300781 22.058594 19.40625 22.210938 19.511719 C 22.695312 19.855469 22.695312 19.855469 23.199219 20 C 23.148438 19.789062 23.09375 19.578125 23.039062 19.359375 C 23.304688 19.359375 23.566406 19.359375 23.839844 19.359375 C 23.734375 19.464844 23.628906 19.570312 23.519531 19.679688 C 23.679688 19.890625 23.835938 20.101562 24 20.320312 C 23.539062 20.550781 23.195312 20.40625 22.714844 20.277344 C 22.28125 20.117188 22.035156 19.890625 21.761719 19.519531 C 21.761719 19.414062 21.761719 19.308594 21.761719 19.199219 Z M 21.761719 19.199219 "/>
<path style=" stroke:none;fill-rule:nonzero;fill:rgb(15.294118%,19.607843%,55.29412%);fill-opacity:1;" d="M 25.441406 17.921875 C 27.128906 17.890625 27.128906 17.890625 27.839844 18.078125 C 27.839844 18.132812 27.839844 18.1875 27.839844 18.238281 C 27.46875 18.238281 27.101562 18.238281 26.71875 18.238281 C 26.667969 18.398438 26.613281 18.558594 26.558594 18.71875 C 26.136719 18.5625 25.714844 18.402344 25.28125 18.238281 C 25.332031 18.132812 25.386719 18.027344 25.441406 17.921875 Z M 25.441406 17.921875 "/>
<path style=" stroke:none;fill-rule:nonzero;fill:rgb(4.313726%,50.588238%,98.431373%);fill-opacity:1;" d="M 17.921875 13.921875 C 18.078125 14.027344 18.238281 14.132812 18.398438 14.238281 C 18.398438 14.878906 18.398438 14.878906 18.039062 15.328125 C 17.601562 15.679688 17.601562 15.679688 17.230469 15.648438 C 17.140625 15.605469 17.050781 15.5625 16.960938 15.519531 C 17.03125 15.433594 17.097656 15.347656 17.171875 15.261719 C 17.472656 14.832031 17.695312 14.390625 17.921875 13.921875 Z M 17.921875 13.921875 "/>
<path style=" stroke:none;fill-rule:nonzero;fill:rgb(49.803922%,70.980394%,91.37255%);fill-opacity:1;" d="M 17.601562 15.359375 C 17.652344 15.464844 17.707031 15.570312 17.761719 15.679688 C 17.867188 15.734375 17.972656 15.785156 18.078125 15.839844 C 17.972656 15.839844 17.867188 15.839844 17.761719 15.839844 C 17.761719 16 17.761719 16.15625 17.761719 16.320312 C 17.335938 16.320312 16.914062 16.320312 16.480469 16.320312 C 16.480469 16.109375 16.480469 15.898438 16.480469 15.679688 C 16.847656 15.679688 17.21875 15.679688 17.601562 15.679688 C 17.601562 15.574219 17.601562 15.46875 17.601562 15.359375 Z M 17.601562 15.359375 "/>
<path style=" stroke:none;fill-rule:nonzero;fill:rgb(18.431373%,43.921569%,74.117649%);fill-opacity:1;" d="M 24 15.679688 C 24 15.785156 24 15.890625 24 16 C 23.839844 16.078125 23.839844 16.078125 23.679688 16.160156 C 23.734375 16.265625 23.785156 16.371094 23.839844 16.480469 C 23.574219 16.480469 23.3125 16.480469 23.039062 16.480469 C 23.039062 16.320312 23.039062 16.164062 23.039062 16 C 22.566406 15.921875 22.566406 15.921875 22.078125 15.839844 C 22.730469 15.191406 23.195312 15.421875 24 15.679688 Z M 24 15.679688 "/>
<path style=" stroke:none;fill-rule:nonzero;fill:rgb(17.254902%,31.37255%,72.549021%);fill-opacity:1;" d="M 14.71875 9.761719 C 15.195312 9.761719 15.671875 9.761719 16.160156 9.761719 C 16.160156 9.972656 16.160156 10.183594 16.160156 10.398438 C 15.578125 10.398438 15 10.398438 14.398438 10.398438 C 14.503906 10.1875 14.609375 9.976562 14.71875 9.761719 Z M 14.71875 9.761719 "/>
<path style=" stroke:none;fill-rule:nonzero;fill:rgb(76.078433%,77.64706%,80.000001%);fill-opacity:1;" d="M 20 15.039062 C 20.761719 15.160156 20.761719 15.160156 21.121094 15.519531 C 21.140625 16.101562 21.140625 16.101562 21.121094 16.640625 C 21.066406 16.480469 21.015625 16.324219 20.960938 16.160156 C 20.855469 16.160156 20.75 16.160156 20.640625 16.160156 C 20.585938 16 20.535156 15.84375 20.480469 15.679688 C 20.214844 15.628906 19.953125 15.574219 19.679688 15.519531 C 19.785156 15.363281 19.890625 15.203125 20 15.039062 Z M 20 15.039062 "/>
<path style=" stroke:none;fill-rule:nonzero;fill:rgb(6.666667%,60.392159%,94.509804%);fill-opacity:1;" d="M 18.71875 13.441406 C 18.824219 13.441406 18.929688 13.441406 19.039062 13.441406 C 19.035156 13.617188 19.027344 13.796875 19.019531 13.980469 C 18.972656 14.566406 18.972656 14.566406 19.359375 14.878906 C 18.960938 15.078125 18.8125 15.003906 18.398438 14.878906 C 18.378906 14.339844 18.378906 14.339844 18.398438 13.761719 C 18.503906 13.65625 18.609375 13.546875 18.71875 13.441406 Z M 18.71875 13.441406 "/>
<path style=" stroke:none;fill-rule:nonzero;fill:rgb(12.54902%,43.921569%,95.294118%);fill-opacity:1;" d="M 16.320312 19.199219 C 16.425781 19.199219 16.53125 19.199219 16.640625 19.199219 C 16.640625 19.304688 16.640625 19.410156 16.640625 19.519531 C 16.796875 19.574219 16.957031 19.625 17.121094 19.679688 C 17.121094 19.785156 17.121094 19.890625 17.121094 20 C 17.382812 20.054688 17.648438 20.105469 17.921875 20.160156 C 17.867188 20.320312 17.8125 20.476562 17.761719 20.640625 C 17.65625 20.640625 17.546875 20.640625 17.441406 20.640625 C 17.441406 20.535156 17.441406 20.429688 17.441406 20.320312 C 17.28125 20.320312 17.125 20.320312 16.960938 20.320312 C 16.960938 20.214844 16.960938 20.109375 16.960938 20 C 16.800781 19.945312 16.644531 19.894531 16.480469 19.839844 C 16.375 19.945312 16.269531 20.050781 16.160156 20.160156 C 16.210938 19.84375 16.265625 19.527344 16.320312 19.199219 Z M 16.320312 19.199219 "/>
<path style=" stroke:none;fill-rule:nonzero;fill:rgb(3.137255%,84.313726%,94.117647%);fill-opacity:1;" d="M 15.519531 18.558594 C 15.730469 18.613281 15.941406 18.664062 16.160156 18.71875 C 16.105469 19.089844 16.054688 19.460938 16 19.839844 C 15.734375 19.894531 15.472656 19.945312 15.199219 20 C 15.304688 19.523438 15.410156 19.050781 15.519531 18.558594 Z M 15.519531 18.558594 "/>
<path style=" stroke:none;fill-rule:nonzero;fill:rgb(92.941177%,95.686275%,96.078432%);fill-opacity:1;" d="M 11.039062 16.160156 C 11.144531 16.160156 11.25 16.160156 11.359375 16.160156 C 11.359375 16.320312 11.359375 16.476562 11.359375 16.640625 C 11.730469 16.640625 12.097656 16.640625 12.480469 16.640625 C 12.480469 16.796875 12.480469 16.957031 12.480469 17.121094 C 12.003906 17.121094 11.53125 17.121094 11.039062 17.121094 C 11.039062 16.804688 11.039062 16.488281 11.039062 16.160156 Z M 11.039062 16.160156 "/>
<path style=" stroke:none;fill-rule:nonzero;fill:rgb(5.882353%,74.509805%,88.627452%);fill-opacity:1;" d="M 15.359375 11.199219 C 15.808594 11.421875 15.808594 11.421875 16.160156 11.679688 C 16.160156 11.785156 16.160156 11.890625 16.160156 12 C 15.949219 12 15.738281 12 15.519531 12 C 15.46875 11.894531 15.414062 11.789062 15.359375 11.679688 C 14.832031 11.734375 14.304688 11.785156 13.761719 11.839844 C 13.761719 11.734375 13.761719 11.628906 13.761719 11.519531 C 14.320312 11.265625 14.746094 11.125 15.359375 11.199219 Z M 15.359375 11.199219 "/>
<path style=" stroke:none;fill-rule:nonzero;fill:rgb(15.294118%,34.901962%,92.941177%);fill-opacity:1;" d="M 16.320312 19.679688 C 16.53125 19.785156 16.742188 19.890625 16.960938 20 C 16.960938 20.105469 16.960938 20.210938 16.960938 20.320312 C 17.117188 20.320312 17.277344 20.320312 17.441406 20.320312 C 17.492188 20.476562 17.546875 20.636719 17.601562 20.800781 C 17.28125 20.800781 16.964844 20.800781 16.640625 20.800781 C 16.585938 20.695312 16.535156 20.589844 16.480469 20.480469 C 16.375 20.585938 16.269531 20.691406 16.160156 20.800781 C 16.210938 20.429688 16.265625 20.0625 16.320312 19.679688 Z M 16.320312 19.679688 "/>
<path style=" stroke:none;fill-rule:nonzero;fill:rgb(10.980392%,56.078434%,88.627452%);fill-opacity:1;" d="M 14.398438 20.160156 C 14.980469 20.265625 15.5625 20.371094 16.160156 20.480469 C 16.160156 20.636719 16.160156 20.796875 16.160156 20.960938 C 15.140625 21.039062 15.140625 21.039062 14.648438 20.648438 C 14.398438 20.320312 14.398438 20.320312 14.398438 20.160156 Z M 14.398438 20.160156 "/>
<path style=" stroke:none;fill-rule:nonzero;fill:rgb(18.82353%,34.117648%,74.117649%);fill-opacity:1;" d="M 21.441406 17.601562 C 21.28125 17.679688 21.28125 17.679688 21.121094 17.761719 C 21.121094 17.867188 21.121094 17.972656 21.121094 18.078125 C 20.644531 18.078125 20.167969 18.078125 19.679688 18.078125 C 19.628906 18.238281 19.574219 18.398438 19.519531 18.558594 C 19.363281 18.613281 19.203125 18.664062 19.039062 18.71875 C 19.128906 18.339844 19.128906 18.339844 19.359375 17.921875 C 20.0625 17.636719 20.683594 17.5625 21.441406 17.601562 Z M 21.441406 17.601562 "/>
<path style=" stroke:none;fill-rule:nonzero;fill:rgb(78.039217%,81.176472%,85.882354%);fill-opacity:1;" d="M 11.039062 15.519531 C 11.144531 15.519531 11.25 15.519531 11.359375 15.519531 C 11.359375 15.625 11.359375 15.730469 11.359375 15.839844 C 11.730469 15.839844 12.097656 15.839844 12.480469 15.839844 C 12.480469 16 12.480469 16.15625 12.480469 16.320312 C 12.164062 16.320312 11.847656 16.320312 11.519531 16.320312 C 11.46875 16.425781 11.414062 16.53125 11.359375 16.640625 C 11.359375 16.480469 11.359375 16.324219 11.359375 16.160156 C 11.253906 16.160156 11.148438 16.160156 11.039062 16.160156 C 11.039062 15.949219 11.039062 15.738281 11.039062 15.519531 Z M 11.039062 15.519531 "/>
<path style=" stroke:none;fill-rule:nonzero;fill:rgb(17.254902%,50.588238%,81.176472%);fill-opacity:1;" d="M 20 15.519531 C 20.328125 15.589844 20.328125 15.589844 20.640625 15.679688 C 20.640625 15.945312 20.640625 16.207031 20.640625 16.480469 C 20.328125 16.570312 20.328125 16.570312 20 16.640625 C 19.839844 16.480469 19.839844 16.480469 19.820312 16.078125 C 19.839844 15.679688 19.839844 15.679688 20 15.519531 Z M 20 15.519531 "/>
<path style=" stroke:none;fill-rule:nonzero;fill:rgb(16.078432%,47.450981%,82.352942%);fill-opacity:1;" d="M 19.199219 12.800781 C 19.679688 13.28125 19.617188 13.730469 19.679688 14.398438 C 19.785156 14.398438 19.890625 14.398438 20 14.398438 C 20 14.558594 20 14.71875 20 14.878906 C 20.160156 14.933594 20.316406 14.984375 20.480469 15.039062 C 20.214844 15.039062 19.953125 15.039062 19.679688 15.039062 C 19.355469 14.25 19.136719 13.667969 19.199219 12.800781 Z M 19.199219 12.800781 "/>
<path style=" stroke:none;fill-rule:nonzero;fill:rgb(11.372549%,52.156866%,80.784315%);fill-opacity:1;" d="M 14.398438 10.558594 C 15.589844 10.539062 15.589844 10.539062 16.160156 10.71875 C 16.105469 10.929688 16.054688 11.140625 16 11.359375 C 15.917969 11.308594 15.835938 11.261719 15.75 11.210938 C 15.253906 10.992188 14.777344 10.941406 14.238281 10.878906 C 14.292969 10.773438 14.34375 10.667969 14.398438 10.558594 Z M 14.398438 10.558594 "/>
<path style=" stroke:none;fill-rule:nonzero;fill:rgb(6.666667%,55.686277%,98.431373%);fill-opacity:1;" d="M 16.480469 16.320312 C 16.902344 16.320312 17.324219 16.320312 17.761719 16.320312 C 17.539062 16.558594 17.539062 16.558594 17.28125 16.800781 C 17.175781 16.800781 17.070312 16.800781 16.960938 16.800781 C 16.960938 16.90625 16.960938 17.011719 16.960938 17.121094 C 16.800781 17.171875 16.644531 17.226562 16.480469 17.28125 C 16.320312 16.800781 16.320312 16.800781 16.480469 16.320312 Z M 16.480469 16.320312 "/>
<path style=" stroke:none;fill-rule:nonzero;fill:rgb(20.784314%,34.117648%,72.156864%);fill-opacity:1;" d="M 7.679688 14.558594 C 8.050781 14.664062 8.417969 14.769531 8.800781 14.878906 C 8.800781 15.039062 8.800781 15.195312 8.800781 15.359375 C 7.847656 15.203125 7.847656 15.203125 6.878906 15.039062 C 6.878906 14.988281 6.878906 14.933594 6.878906 14.878906 C 7.144531 14.878906 7.40625 14.878906 7.679688 14.878906 C 7.679688 14.773438 7.679688 14.667969 7.679688 14.558594 Z M 7.679688 14.558594 "/>
<path style=" stroke:none;fill-rule:nonzero;fill:rgb(23.137255%,39.607844%,83.137256%);fill-opacity:1;" d="M 12.480469 13.761719 C 12.53125 13.761719 12.585938 13.761719 12.640625 13.761719 C 12.839844 14.980469 12.839844 14.980469 12.480469 15.519531 C 12.480469 15.363281 12.480469 15.203125 12.480469 15.039062 C 11.953125 15.039062 11.425781 15.039062 10.878906 15.039062 C 10.878906 14.988281 10.878906 14.933594 10.878906 14.878906 C 11.355469 14.878906 11.832031 14.878906 12.320312 14.878906 C 12.316406 14.726562 12.3125 14.570312 12.308594 14.410156 C 12.320312 13.921875 12.320312 13.921875 12.480469 13.761719 Z M 12.480469 13.761719 "/>
<path style=" stroke:none;fill-rule:nonzero;fill:rgb(71.372551%,75.294119%,80.000001%);fill-opacity:1;" d="M 15.199219 15.039062 C 15.921875 14.980469 15.921875 14.980469 16.289062 15.261719 C 16.480469 15.519531 16.480469 15.519531 16.480469 15.839844 C 15.765625 15.679688 15.765625 15.679688 15.039062 15.519531 C 15.09375 15.363281 15.144531 15.203125 15.199219 15.039062 Z M 15.199219 15.039062 "/>
<path style=" stroke:none;fill-rule:nonzero;fill:rgb(7.843138%,47.450981%,94.509804%);fill-opacity:1;" d="M 12.800781 13.441406 C 12.851562 13.441406 12.90625 13.441406 12.960938 13.441406 C 12.960938 13.808594 12.960938 14.179688 12.960938 14.558594 C 13.222656 14.558594 13.488281 14.558594 13.761719 14.558594 C 13.8125 14.664062 13.867188 14.769531 13.921875 14.878906 C 13.496094 14.878906 13.074219 14.878906 12.640625 14.878906 C 12.621094 13.800781 12.621094 13.800781 12.800781 13.441406 Z M 12.800781 13.441406 "/>
<path style=" stroke:none;fill-rule:nonzero;fill:rgb(7.843138%,64.313728%,94.509804%);fill-opacity:1;" d="M 13.28125 12.480469 C 13.332031 12.480469 13.386719 12.480469 13.441406 12.480469 C 13.433594 12.617188 13.425781 12.757812 13.421875 12.898438 C 13.441406 13.460938 13.5625 13.878906 13.761719 14.398438 C 13.601562 14.398438 13.441406 14.398438 13.28125 14.398438 C 13.28125 14.242188 13.28125 14.082031 13.28125 13.921875 C 13.175781 13.921875 13.070312 13.921875 12.960938 13.921875 C 13.101562 12.839844 13.101562 12.839844 13.28125 12.480469 Z M 13.28125 12.480469 "/>
<path style=" stroke:none;fill-rule:nonzero;fill:rgb(13.725491%,36.862746%,97.254902%);fill-opacity:1;" d="M 18.078125 12 C 18.1875 12.054688 18.292969 12.105469 18.398438 12.160156 C 18.300781 12.304688 18.203125 12.449219 18.101562 12.601562 C 17.847656 12.984375 17.632812 13.34375 17.441406 13.761719 C 17.335938 13.65625 17.230469 13.546875 17.121094 13.441406 C 17.136719 12.914062 17.324219 12.75 17.691406 12.359375 C 17.820312 12.242188 17.949219 12.121094 18.078125 12 Z M 18.078125 12 "/>
<path style=" stroke:none;fill-rule:nonzero;fill:rgb(12.54902%,48.235294%,96.470588%);fill-opacity:1;" d="M 14.238281 16 C 14.308594 16.09375 14.378906 16.191406 14.449219 16.289062 C 14.824219 16.777344 15.164062 17.097656 15.679688 17.441406 C 14.824219 17.386719 14.824219 17.386719 14.398438 17.28125 C 14.148438 16.988281 14.148438 16.988281 14.078125 16.640625 C 14.140625 16.28125 14.140625 16.28125 14.238281 16 Z M 14.238281 16 "/>
<path style=" stroke:none;fill-rule:nonzero;fill:rgb(60.392159%,73.333335%,86.666667%);fill-opacity:1;" d="M 14.878906 15.039062 C 14.984375 15.09375 15.089844 15.144531 15.199219 15.199219 C 15.148438 15.570312 15.09375 15.9375 15.039062 16.320312 C 14.988281 16.160156 14.933594 16.003906 14.878906 15.839844 C 14.773438 15.839844 14.667969 15.839844 14.558594 15.839844 C 14.507812 16.050781 14.453125 16.261719 14.398438 16.480469 C 14.347656 16.109375 14.292969 15.742188 14.238281 15.359375 C 14.539062 15.191406 14.539062 15.191406 14.878906 15.039062 Z M 14.878906 15.039062 "/>
<path style=" stroke:none;fill-rule:nonzero;fill:rgb(14.901961%,40.000001%,81.176472%);fill-opacity:1;" d="M 14.71875 20.800781 C 15.195312 20.851562 15.671875 20.90625 16.160156 20.960938 C 16.160156 21.117188 16.160156 21.277344 16.160156 21.441406 C 15.789062 21.441406 15.421875 21.441406 15.039062 21.441406 C 14.933594 21.230469 14.828125 21.019531 14.71875 20.800781 Z M 14.71875 20.800781 "/>
<path style=" stroke:none;fill-rule:nonzero;fill:rgb(19.607843%,33.333334%,70.588237%);fill-opacity:1;" d="M 8 17.441406 C 7.839844 17.761719 7.839844 17.761719 7.578125 17.878906 C 7.035156 17.9375 6.597656 17.769531 6.078125 17.601562 C 6.078125 17.546875 6.078125 17.496094 6.078125 17.441406 C 6.769531 17.316406 7.320312 17.253906 8 17.441406 Z M 8 17.441406 "/>
<path style=" stroke:none;fill-rule:nonzero;fill:rgb(17.254902%,23.921569%,96.078432%);fill-opacity:1;" d="M 17.761719 11.359375 C 17.761719 11.964844 17.601562 12.074219 17.199219 12.511719 C 17.042969 12.683594 17.042969 12.683594 16.886719 12.855469 C 16.804688 12.945312 16.722656 13.03125 16.640625 13.121094 C 16.585938 12.910156 16.535156 12.699219 16.480469 12.480469 C 16.902344 12.109375 17.324219 11.742188 17.761719 11.359375 Z M 17.761719 11.359375 "/>
<path style=" stroke:none;fill-rule:nonzero;fill:rgb(9.803922%,58.431375%,95.686275%);fill-opacity:1;" d="M 16.480469 18.558594 C 16.875 18.640625 16.875 18.640625 17.28125 18.71875 C 17.28125 18.878906 17.28125 19.035156 17.28125 19.199219 C 17.386719 19.199219 17.492188 19.199219 17.601562 19.199219 C 17.707031 19.410156 17.8125 19.621094 17.921875 19.839844 C 17.53125 19.730469 17.53125 19.730469 17.121094 19.519531 C 16.988281 19.101562 16.988281 19.101562 16.960938 18.71875 C 16.800781 18.667969 16.644531 18.613281 16.480469 18.558594 Z M 16.480469 18.558594 "/>
<path style=" stroke:none;fill-rule:nonzero;fill:rgb(12.156863%,69.411767%,85.09804%);fill-opacity:1;" d="M 19.519531 17.121094 C 20.039062 17.058594 20.039062 17.058594 20.480469 17.121094 C 20.339844 17.167969 20.339844 17.167969 20.199219 17.21875 C 19.710938 17.519531 19.496094 17.914062 19.199219 18.398438 C 19.09375 18.292969 18.988281 18.1875 18.878906 18.078125 C 19.140625 17.601562 19.140625 17.601562 19.519531 17.121094 Z M 19.519531 17.121094 "/>
<path style=" stroke:none;fill-rule:nonzero;fill:rgb(16.862746%,25.098041%,61.176473%);fill-opacity:1;" d="M 25.921875 17.761719 C 25.589844 18.121094 25.4375 18.242188 24.960938 18.398438 C 24.800781 18.347656 24.644531 18.292969 24.480469 18.238281 C 24.480469 18.132812 24.480469 18.027344 24.480469 17.921875 C 24.953125 17.683594 25.398438 17.75 25.921875 17.761719 Z M 25.921875 17.761719 "/>
<path style=" stroke:none;fill-rule:nonzero;fill:rgb(96.862745%,98.039216%,97.254902%);fill-opacity:1;" d="M 18.238281 16.480469 C 18.292969 16.585938 18.34375 16.691406 18.398438 16.800781 C 18.609375 16.800781 18.824219 16.800781 19.039062 16.800781 C 19.039062 16.90625 19.039062 17.011719 19.039062 17.121094 C 18.617188 17.121094 18.195312 17.121094 17.761719 17.121094 C 17.761719 16.960938 17.761719 16.804688 17.761719 16.640625 C 17.917969 16.585938 18.078125 16.535156 18.238281 16.480469 Z M 18.238281 16.480469 "/>
<path style=" stroke:none;fill-rule:nonzero;fill:rgb(16.470589%,31.37255%,89.019608%);fill-opacity:1;" d="M 18.078125 11.359375 C 18.238281 11.359375 18.398438 11.359375 18.558594 11.359375 C 18.828125 11.761719 18.828125 11.761719 19.039062 12.160156 C 18.671875 12.054688 18.300781 11.949219 17.921875 11.839844 C 17.972656 11.679688 18.027344 11.523438 18.078125 11.359375 Z M 18.078125 11.359375 "/>
<path style=" stroke:none;fill-rule:nonzero;fill:rgb(17.647059%,28.627452%,74.509805%);fill-opacity:1;" d="M 15.039062 21.441406 C 15.460938 21.441406 15.886719 21.441406 16.320312 21.441406 C 16.265625 21.652344 16.214844 21.863281 16.160156 22.078125 C 16 22.078125 15.84375 22.078125 15.679688 22.078125 C 15.679688 21.972656 15.679688 21.867188 15.679688 21.761719 C 15.46875 21.65625 15.257812 21.546875 15.039062 21.441406 Z M 15.039062 21.441406 "/>
<path style=" stroke:none;fill-rule:nonzero;fill:rgb(19.607843%,22.352941%,78.039217%);fill-opacity:1;" d="M 17.601562 20.640625 C 17.652344 20.746094 17.707031 20.851562 17.761719 20.960938 C 17.226562 21.589844 17.226562 21.589844 16.679688 21.640625 C 16.5625 21.625 16.441406 21.613281 16.320312 21.601562 C 16.320312 21.441406 16.320312 21.28125 16.320312 21.121094 C 16.546875 21.136719 16.546875 21.136719 16.78125 21.148438 C 17.027344 21.136719 17.027344 21.136719 17.28125 21.121094 C 17.386719 20.960938 17.492188 20.804688 17.601562 20.640625 Z M 17.601562 20.640625 "/>
<path style=" stroke:none;fill-rule:nonzero;fill:rgb(94.509804%,95.686275%,94.901961%);fill-opacity:1;" d="M 20.960938 16.160156 C 20.90625 16.425781 20.855469 16.6875 20.800781 16.960938 C 20.535156 17.011719 20.273438 17.066406 20 17.121094 C 20 16.800781 20 16.800781 20.300781 16.460938 C 20.640625 16.160156 20.640625 16.160156 20.960938 16.160156 Z M 20.960938 16.160156 "/>
<path style=" stroke:none;fill-rule:nonzero;fill:rgb(14.901961%,40.000001%,74.901962%);fill-opacity:1;" d="M 19.839844 17.28125 C 20.316406 17.359375 20.316406 17.359375 20.800781 17.441406 C 20.390625 17.851562 20.082031 17.847656 19.519531 17.921875 C 19.625 17.707031 19.730469 17.496094 19.839844 17.28125 Z M 19.839844 17.28125 "/>
<path style=" stroke:none;fill-rule:nonzero;fill:rgb(15.686275%,23.529412%,58.823532%);fill-opacity:1;" d="M 25.601562 15.519531 C 25.757812 15.574219 25.917969 15.625 26.078125 15.679688 C 25.972656 15.679688 25.867188 15.679688 25.761719 15.679688 C 25.761719 15.785156 25.761719 15.890625 25.761719 16 C 26.183594 15.945312 26.605469 15.894531 27.039062 15.839844 C 26.988281 15.945312 26.933594 16.050781 26.878906 16.160156 C 26.40625 16.160156 25.929688 16.160156 25.441406 16.160156 C 25.441406 15.679688 25.441406 15.679688 25.601562 15.519531 Z M 25.601562 15.519531 "/>
<path style=" stroke:none;fill-rule:nonzero;fill:rgb(18.039216%,39.215687%,70.980394%);fill-opacity:1;" d="M 23.519531 15.519531 C 23.835938 15.519531 24.152344 15.519531 24.480469 15.519531 C 24.425781 15.785156 24.375 16.046875 24.320312 16.320312 C 24.054688 16.320312 23.792969 16.320312 23.519531 16.320312 C 23.574219 16.214844 23.625 16.109375 23.679688 16 C 23.785156 16 23.890625 16 24 16 C 24 15.894531 24 15.789062 24 15.679688 C 23.839844 15.628906 23.683594 15.574219 23.519531 15.519531 Z M 23.519531 15.519531 "/>
<path style=" stroke:none;fill-rule:nonzero;fill:rgb(19.607843%,36.862746%,72.156864%);fill-opacity:1;" d="M 7.199219 15.359375 C 7.597656 15.519531 7.597656 15.519531 8 15.679688 C 8 15.734375 8 15.785156 8 15.839844 C 7.289062 15.917969 7.289062 15.917969 6.558594 16 C 6.558594 15.894531 6.558594 15.789062 6.558594 15.679688 C 6.769531 15.679688 6.980469 15.679688 7.199219 15.679688 C 7.199219 15.574219 7.199219 15.46875 7.199219 15.359375 Z M 7.199219 15.359375 "/>
<path style=" stroke:none;fill-rule:nonzero;fill:rgb(8.235294%,36.862746%,97.647059%);fill-opacity:1;" d="M 16.160156 14.238281 C 16.265625 14.453125 16.371094 14.664062 16.480469 14.878906 C 16.691406 14.773438 16.902344 14.667969 17.121094 14.558594 C 17 14.871094 17 14.871094 16.800781 15.199219 C 16.460938 15.320312 16.460938 15.320312 16.160156 15.359375 C 16.160156 14.992188 16.160156 14.621094 16.160156 14.238281 Z M 16.160156 14.238281 "/>
<path style=" stroke:none;fill-rule:nonzero;fill:rgb(8.235294%,19.607843%,98.431373%);fill-opacity:1;" d="M 16.320312 12.960938 C 16.636719 13.117188 16.636719 13.117188 16.960938 13.28125 C 16.855469 13.542969 16.75 13.808594 16.640625 14.078125 C 16.535156 14.078125 16.429688 14.078125 16.320312 14.078125 C 16.320312 13.710938 16.320312 13.339844 16.320312 12.960938 Z M 16.320312 12.960938 "/>
<path style=" stroke:none;fill-rule:nonzero;fill:rgb(9.411765%,56.470591%,95.686275%);fill-opacity:1;" d="M 18.558594 12.960938 C 18.664062 12.960938 18.769531 12.960938 18.878906 12.960938 C 18.785156 13.496094 18.585938 13.820312 18.238281 14.238281 C 18.078125 13.761719 18.078125 13.761719 18.289062 13.328125 C 18.378906 13.207031 18.46875 13.085938 18.558594 12.960938 Z M 18.558594 12.960938 "/>
<path style=" stroke:none;fill-rule:nonzero;fill:rgb(16.470589%,55.29412%,96.862745%);fill-opacity:1;" d="M 13.28125 16.480469 C 13.386719 16.480469 13.492188 16.480469 13.601562 16.480469 C 13.652344 16.691406 13.707031 16.902344 13.761719 17.121094 C 13.972656 17.171875 14.183594 17.226562 14.398438 17.28125 C 14.109375 17.378906 14.109375 17.378906 13.761719 17.441406 C 13.601562 17.335938 13.441406 17.230469 13.28125 17.121094 C 13.28125 16.910156 13.28125 16.699219 13.28125 16.480469 Z M 13.28125 16.480469 "/>
<path style=" stroke:none;fill-rule:nonzero;fill:rgb(12.156863%,43.921569%,96.862745%);fill-opacity:1;" d="M 18.078125 12.480469 C 18.199219 12.761719 18.199219 12.761719 18.238281 13.121094 C 17.929688 13.480469 17.929688 13.480469 17.601562 13.761719 C 17.71875 12.839844 17.71875 12.839844 18.078125 12.480469 Z M 18.078125 12.480469 "/>
</g>
</svg>
